STARTFONT 2.1
COMMENT
COMMENT Converted from OpenType font "Patriot-Normal.otf" by "otf2bdf 3.0".
COMMENT
FONT -FreeType-Patriot Normal-Medium-R-Normal--22-160-100-100-P-106-ISO10646-1
SIZE 16 100 100
FONTBOUNDINGBOX 35 29 -8 -6
STARTPROPERTIES 19
FOUNDRY "FreeType"
FAMILY_NAME "Patriot Normal"
WEIGHT_NAME "Medium"
SLANT "R"
SETWIDTH_NAME "Normal"
ADD_STYLE_NAME ""
PIXEL_SIZE 22
POINT_SIZE 160
RESOLUTION_X 100
RESOLUTION_Y 100
SPACING "P"
AVERAGE_WIDTH 106
CHARSET_REGISTRY "ISO10646"
CHARSET_ENCODING "1"
FONT_ASCENT 22
FONT_DESCENT 4
COPYRIGHT "Copyright © 2020 by Behalf Studio. All rights reserved."
_OTF_FONTFILE "Patriot-Normal.otf"
_OTF_PSNAME "Patriot-Normal"
ENDPROPERTIES
CHARS 426
STARTCHAR 0020
ENCODING 32
SWIDTH 315 0
DWIDTH 7 0
BBX 0 0 0 0
BITMAP
ENDCHAR
STARTCHAR 0021
ENCODING 33
SWIDTH 225 0
DWIDTH 5 0
BBX 3 16 1 0
BITMAP
40
40
40
40
40
40
40
40
40
40
40
00
00
60
E0
E0
ENDCHAR
STARTCHAR 0022
ENCODING 34
SWIDTH 270 0
DWIDTH 6 0
BBX 4 5 1 11
BITMAP
D0
D0
D0
D0
D0
ENDCHAR
STARTCHAR 0023
ENCODING 35
SWIDTH 585 0
DWIDTH 13 0
BBX 12 16 1 0
BITMAP
0840
0840
0840
1840
18C0
7FF0
7FF0
1080
1080
1080
FFE0
FFE0
3180
2100
2100
2100
ENDCHAR
STARTCHAR 0024
ENCODING 36
SWIDTH 495 0
DWIDTH 11 0
BBX 10 20 1 -2
BITMAP
0C00
0C00
1E00
3F00
6580
6480
6400
6400
3C00
1C00
0700
0580
0480
04C0
C4C0
4480
7780
3F00
0C00
0C00
ENDCHAR
STARTCHAR 0025
ENCODING 37
SWIDTH 810 0
DWIDTH 18 0
BBX 17 16 1 0
BITMAP
3C0600
660C00
C20800
C31000
C33000
422000
7E4000
00C000
018000
011E00
033300
066100
046180
086180
182300
103E00
ENDCHAR
STARTCHAR 0026
ENCODING 38
SWIDTH 630 0
DWIDTH 14 0
BBX 12 16 1 0
BITMAP
1E00
3F00
6180
6080
4000
6000
7000
3FF0
7860
6060
C060
C060
C040
60C0
7380
3F00
ENDCHAR
STARTCHAR 0027
ENCODING 39
SWIDTH 135 0
DWIDTH 3 0
BBX 1 5 1 11
BITMAP
80
80
80
80
80
ENDCHAR
STARTCHAR 0028
ENCODING 40
SWIDTH 270 0
DWIDTH 6 0
BBX 5 20 1 -2
BITMAP
18
30
20
60
40
40
C0
C0
C0
C0
C0
C0
C0
40
40
60
20
30
10
10
ENDCHAR
STARTCHAR 0029
ENCODING 41
SWIDTH 270 0
DWIDTH 6 0
BBX 5 20 1 -2
BITMAP
C0
60
20
30
10
10
18
18
18
18
18
18
18
10
10
30
20
60
40
40
ENDCHAR
STARTCHAR 002A
ENCODING 42
SWIDTH 450 0
DWIDTH 10 0
BBX 8 7 1 8
BITMAP
18
18
DB
FF
18
3C
66
ENDCHAR
STARTCHAR 002B
ENCODING 43
SWIDTH 540 0
DWIDTH 12 0
BBX 10 10 1 2
BITMAP
0C00
0C00
0C00
0C00
FFC0
0C00
0C00
0C00
0C00
0C00
ENDCHAR
STARTCHAR 002C
ENCODING 44
SWIDTH 225 0
DWIDTH 5 0
BBX 3 5 1 -3
BITMAP
20
60
40
40
80
ENDCHAR
STARTCHAR 002D
ENCODING 45
SWIDTH 405 0
DWIDTH 9 0
BBX 8 2 1 4
BITMAP
FF
FF
ENDCHAR
STARTCHAR 002E
ENCODING 46
SWIDTH 225 0
DWIDTH 5 0
BBX 3 3 1 0
BITMAP
60
E0
E0
ENDCHAR
STARTCHAR 002F
ENCODING 47
SWIDTH 360 0
DWIDTH 8 0
BBX 6 16 1 0
BITMAP
04
0C
0C
08
08
18
10
10
30
30
20
20
60
40
40
C0
ENDCHAR
STARTCHAR 0030
ENCODING 48
SWIDTH 675 0
DWIDTH 15 0
BBX 14 16 1 0
BITMAP
0F80
1FE0
7030
6018
C018
C008
800C
800C
800C
800C
C00C
C008
4018
6030
3860
1FC0
ENDCHAR
STARTCHAR 0031
ENCODING 49
SWIDTH 270 0
DWIDTH 6 0
BBX 4 16 1 0
BITMAP
30
30
F0
30
30
30
30
30
30
30
30
30
30
30
30
30
ENDCHAR
STARTCHAR 0032
ENCODING 50
SWIDTH 495 0
DWIDTH 11 0
BBX 10 16 1 0
BITMAP
1E00
7F00
6180
C0C0
C0C0
00C0
0080
0180
0100
0300
0600
0C00
1800
3000
6000
FFC0
ENDCHAR
STARTCHAR 0033
ENCODING 51
SWIDTH 495 0
DWIDTH 11 0
BBX 10 16 1 0
BITMAP
FF80
FF80
0300
0600
1800
3C00
7F00
4180
00C0
00C0
00C0
00C0
00C0
8180
E380
7E00
ENDCHAR
STARTCHAR 0034
ENCODING 52
SWIDTH 495 0
DWIDTH 11 0
BBX 11 16 0 0
BITMAP
00C0
07C0
1CC0
30C0
30C0
60C0
40C0
40C0
C0C0
C0C0
FFE0
00C0
00C0
00C0
00C0
00C0
ENDCHAR
STARTCHAR 0035
ENCODING 53
SWIDTH 495 0
DWIDTH 11 0
BBX 10 16 1 0
BITMAP
7F80
7F80
4000
C000
C000
DE00
FF00
C180
00C0
00C0
0040
0040
00C0
40C0
E380
3F00
ENDCHAR
STARTCHAR 0036
ENCODING 54
SWIDTH 585 0
DWIDTH 13 0
BBX 12 16 1 0
BITMAP
0200
0600
0C00
1800
1800
3F80
71C0
6060
C020
C030
C030
C030
C020
6060
70C0
1F80
ENDCHAR
STARTCHAR 0037
ENCODING 55
SWIDTH 405 0
DWIDTH 9 0
BBX 9 16 1 0
BITMAP
FF80
FF80
0300
0300
0200
0600
FF00
FF00
0C00
0800
1800
1000
3000
3000
2000
6000
ENDCHAR
STARTCHAR 0038
ENCODING 56
SWIDTH 540 0
DWIDTH 12 0
BBX 11 16 1 0
BITMAP
0E00
3B00
2180
2180
3180
3F00
3F80
60C0
C040
8060
8060
8060
C060
C0C0
71C0
3F00
ENDCHAR
STARTCHAR 0039
ENCODING 57
SWIDTH 540 0
DWIDTH 12 0
BBX 11 16 1 0
BITMAP
1F00
3F80
60C0
C060
C020
8020
8020
C020
C060
60C0
3FC0
0D80
0300
0300
0600
0C00
ENDCHAR
STARTCHAR 003A
ENCODING 58
SWIDTH 225 0
DWIDTH 5 0
BBX 3 11 1 0
BITMAP
40
E0
E0
00
00
00
00
00
60
E0
E0
ENDCHAR
STARTCHAR 003B
ENCODING 59
SWIDTH 270 0
DWIDTH 6 0
BBX 4 14 1 -3
BITMAP
20
70
70
00
00
00
00
00
00
20
60
40
40
80
ENDCHAR
STARTCHAR 003C
ENCODING 60
SWIDTH 540 0
DWIDTH 12 0
BBX 10 8 1 2
BITMAP
00C0
0780
3C00
E000
E000
3C00
0700
01C0
ENDCHAR
STARTCHAR 003D
ENCODING 61
SWIDTH 540 0
DWIDTH 12 0
BBX 10 6 1 4
BITMAP
FFC0
0000
0000
0000
FFC0
FFC0
ENDCHAR
STARTCHAR 003E
ENCODING 62
SWIDTH 540 0
DWIDTH 12 0
BBX 10 8 1 2
BITMAP
E000
3800
0F00
01C0
01C0
0700
3C00
E000
ENDCHAR
STARTCHAR 003F
ENCODING 63
SWIDTH 405 0
DWIDTH 9 0
BBX 7 16 1 0
BITMAP
38
7C
C6
46
06
04
0C
18
10
10
30
00
00
30
38
38
ENDCHAR
STARTCHAR 0040
ENCODING 64
SWIDTH 765 0
DWIDTH 17 0
BBX 15 16 1 0
BITMAP
03E0
0E38
100C
2006
41A2
4662
C422
8422
8C22
C466
C6EC
43B8
6000
3004
1818
07F0
ENDCHAR
STARTCHAR 0041
ENCODING 65
SWIDTH 540 0
DWIDTH 12 0
BBX 11 16 1 0
BITMAP
1E00
7F00
6180
C180
C080
C080
C080
C080
C080
C080
C080
C080
C080
C080
FFE0
FFE0
ENDCHAR
STARTCHAR 0042
ENCODING 66
SWIDTH 585 0
DWIDTH 13 0
BBX 12 16 1 0
BITMAP
7E00
7FC0
60E0
6060
6060
6060
6060
FFC0
FFC0
6060
6020
6030
6020
6060
7FE0
7F80
ENDCHAR
STARTCHAR 0043
ENCODING 67
SWIDTH 675 0
DWIDTH 15 0
BBX 14 16 1 0
BITMAP
07C0
1FF0
381C
6008
4000
C000
C000
8000
8000
8000
C000
C000
6000
300C
1C38
0FE0
ENDCHAR
STARTCHAR 0044
ENCODING 68
SWIDTH 630 0
DWIDTH 14 0
BBX 12 16 1 0
BITMAP
F800
FF80
C1C0
C060
C030
C030
C010
C010
C010
C010
C030
C030
C060
C0E0
FF80
FE00
ENDCHAR
STARTCHAR 0045
ENCODING 69
SWIDTH 450 0
DWIDTH 10 0
BBX 11 16 0 0
BITMAP
3F00
3F00
3000
3000
3000
3000
3000
FF80
FF80
3000
3000
3000
3000
3000
3FE0
3FE0
ENDCHAR
STARTCHAR 0046
ENCODING 70
SWIDTH 405 0
DWIDTH 9 0
BBX 10 16 0 0
BITMAP
3FC0
3FC0
3000
3000
3000
3000
3000
3000
FFC0
3000
3000
3000
3000
3000
3000
3000
ENDCHAR
STARTCHAR 0047
ENCODING 71
SWIDTH 810 0
DWIDTH 18 0
BBX 17 16 1 0
BITMAP
07E000
1FF800
381C00
600800
400000
C00000
C00000
81FF80
81FF80
800300
C00300
C00200
600600
300C00
1C3800
0FF000
ENDCHAR
STARTCHAR 0048
ENCODING 72
SWIDTH 540 0
DWIDTH 12 0
BBX 11 16 0 0
BITMAP
3060
3060
3060
3060
3060
3060
3060
FFE0
3060
3060
3060
3060
3060
3060
3060
3060
ENDCHAR
STARTCHAR 0049
ENCODING 73
SWIDTH 135 0
DWIDTH 3 0
BBX 6 17 -1 1
BITMAP
20
FC
30
30
08
00
00
30
30
30
30
30
30
30
30
30
30
ENDCHAR
STARTCHAR 004A
ENCODING 74
SWIDTH 450 0
DWIDTH 10 0
BBX 9 16 0 0
BITMAP
0380
0380
0180
0180
0180
0180
0180
0180
0180
0180
0180
0180
0180
C180
6300
3E00
ENDCHAR
STARTCHAR 004B
ENCODING 75
SWIDTH 495 0
DWIDTH 11 0
BBX 11 16 0 0
BITMAP
30C0
30C0
30C0
30C0
30C0
3080
3180
FF00
FF80
30C0
3040
3040
3060
3060
3060
3060
ENDCHAR
STARTCHAR 004C
ENCODING 76
SWIDTH 405 0
DWIDTH 9 0
BBX 8 16 1 0
BITMAP
C0
C0
C0
C0
C0
C0
C0
C0
C0
C0
C0
C0
C0
C0
FF
FF
ENDCHAR
STARTCHAR 004D
ENCODING 77
SWIDTH 855 0
DWIDTH 19 0
BBX 17 16 1 0
BITMAP
808180
C0C180
60E180
78F180
4CDD80
46CF80
43C380
41C180
40C180
40C180
40C180
40C180
40C180
40C180
40C180
40C180
ENDCHAR
STARTCHAR 004E
ENCODING 78
SWIDTH 495 0
DWIDTH 11 0
BBX 9 16 1 0
BITMAP
8180
C180
E180
F980
DD80
C780
C380
C180
C180
C180
C180
C180
C180
C180
C180
C180
ENDCHAR
STARTCHAR 004F
ENCODING 79
SWIDTH 810 0
DWIDTH 18 0
BBX 16 16 1 0
BITMAP
07E0
1FF8
381C
6006
4002
C003
C003
8001
8001
8001
C003
C003
6006
300C
1C38
0FF0
ENDCHAR
STARTCHAR 0050
ENCODING 80
SWIDTH 540 0
DWIDTH 12 0
BBX 12 16 0 0
BITMAP
3E00
3FC0
2060
2030
2030
2030
2030
2060
FFC0
FF80
2000
2000
2000
2000
2000
2000
ENDCHAR
STARTCHAR 0051
ENCODING 81
SWIDTH 810 0
DWIDTH 18 0
BBX 16 16 1 0
BITMAP
07E0
1FF8
381C
6006
4002
C003
C003
8001
8001
8001
C003
C033
603E
301C
1C3E
0FF6
ENDCHAR
STARTCHAR 0052
ENCODING 82
SWIDTH 540 0
DWIDTH 12 0
BBX 12 16 0 0
BITMAP
3E00
3FC0
3060
3030
3030
3030
3030
3060
FFC0
FFC0
30C0
3060
3060
3020
3020
3020
ENDCHAR
STARTCHAR 0053
ENCODING 83
SWIDTH 450 0
DWIDTH 10 0
BBX 9 16 1 0
BITMAP
3C00
7F00
4300
C180
C000
6000
3000
1C00
0E00
0300
0180
0180
8180
C180
6300
3E00
ENDCHAR
STARTCHAR 0054
ENCODING 84
SWIDTH 450 0
DWIDTH 10 0
BBX 10 16 0 0
BITMAP
FFC0
FFC0
0400
0400
0400
0400
0400
0400
0400
0400
0400
0400
0400
0400
0400
0400
ENDCHAR
STARTCHAR 0055
ENCODING 85
SWIDTH 495 0
DWIDTH 11 0
BBX 9 16 1 0
BITMAP
C180
C180
C180
C180
C180
C180
C180
C180
C180
C180
C180
C180
C180
C180
6300
3E00
ENDCHAR
STARTCHAR 0056
ENCODING 86
SWIDTH 450 0
DWIDTH 10 0
BBX 9 16 0 0
BITMAP
C180
C180
C180
C180
C180
C180
C180
C180
C180
C180
C180
4180
6300
6300
3600
1C00
ENDCHAR
STARTCHAR 0057
ENCODING 87
SWIDTH 765 0
DWIDTH 17 0
BBX 16 16 0 0
BITMAP
C181
C181
C181
C181
C181
C181
C181
C181
C183
C183
C183
41C3
63C2
6366
366C
1C38
ENDCHAR
STARTCHAR 0058
ENCODING 88
SWIDTH 495 0
DWIDTH 11 0
BBX 9 16 1 0
BITMAP
C080
C080
C080
C080
C180
4180
7F00
3F00
6300
C180
C180
C080
C080
C080
C080
C080
ENDCHAR
STARTCHAR 0059
ENCODING 89
SWIDTH 450 0
DWIDTH 10 0
BBX 9 16 1 0
BITMAP
8180
8180
8180
8180
8180
8180
8180
8180
C180
C180
6300
3E00
0800
0800
0800
0800
ENDCHAR
STARTCHAR 005A
ENCODING 90
SWIDTH 450 0
DWIDTH 10 0
BBX 11 16 0 0
BITMAP
7FE0
7FC0
00C0
0180
0180
0300
0200
0600
0C00
0C00
1800
1000
3000
6000
7FC0
FFC0
ENDCHAR
STARTCHAR 005B
ENCODING 91
SWIDTH 180 0
DWIDTH 4 0
BBX 3 21 1 -3
BITMAP
E0
80
80
80
80
80
80
80
80
80
80
80
80
80
80
80
80
80
80
80
E0
ENDCHAR
STARTCHAR 005C
ENCODING 92
SWIDTH 360 0
DWIDTH 8 0
BBX 6 16 1 0
BITMAP
C0
40
40
60
60
20
20
30
10
10
18
18
08
08
0C
04
ENDCHAR
STARTCHAR 005D
ENCODING 93
SWIDTH 180 0
DWIDTH 4 0
BBX 3 21 1 -3
BITMAP
E0
60
60
60
60
60
60
60
60
60
60
60
60
60
60
60
60
60
60
60
E0
ENDCHAR
STARTCHAR 005E
ENCODING 94
SWIDTH 450 0
DWIDTH 10 0
BBX 8 5 1 8
BITMAP
18
34
26
42
C3
ENDCHAR
STARTCHAR 005F
ENCODING 95
SWIDTH 495 0
DWIDTH 11 0
BBX 9 1 1 -2
BITMAP
FF80
ENDCHAR
STARTCHAR 0060
ENCODING 96
SWIDTH 135 0
DWIDTH 3 0
BBX 3 3 0 17
BITMAP
C0
40
20
ENDCHAR
STARTCHAR 0061
ENCODING 97
SWIDTH 540 0
DWIDTH 12 0
BBX 11 16 1 0
BITMAP
1E00
7F00
6180
C180
C080
C080
C080
C080
C080
C080
C080
C080
C080
C080
FFE0
FFE0
ENDCHAR
STARTCHAR 0062
ENCODING 98
SWIDTH 585 0
DWIDTH 13 0
BBX 12 16 1 0
BITMAP
7E00
7FC0
60E0
6060
6060
6060
6060
FFC0
FFC0
6060
6020
6030
6020
6060
7FE0
7F80
ENDCHAR
STARTCHAR 0063
ENCODING 99
SWIDTH 675 0
DWIDTH 15 0
BBX 14 16 1 0
BITMAP
07C0
1FF0
381C
6008
4000
C000
C000
8000
8000
8000
C000
C000
6000
300C
1C38
0FE0
ENDCHAR
STARTCHAR 0064
ENCODING 100
SWIDTH 630 0
DWIDTH 14 0
BBX 12 16 1 0
BITMAP
F800
FF80
C1C0
C060
C030
C030
C010
C010
C010
C010
C030
C030
C060
C0E0
FF80
FE00
ENDCHAR
STARTCHAR 0065
ENCODING 101
SWIDTH 450 0
DWIDTH 10 0
BBX 11 16 0 0
BITMAP
3F00
3F00
3000
3000
3000
3000
3000
FF80
FF80
3000
3000
3000
3000
3000
3FE0
3FE0
ENDCHAR
STARTCHAR 0066
ENCODING 102
SWIDTH 405 0
DWIDTH 9 0
BBX 10 16 0 0
BITMAP
3FC0
3FC0
3000
3000
3000
3000
3000
3000
FFC0
3000
3000
3000
3000
3000
3000
3000
ENDCHAR
STARTCHAR 0067
ENCODING 103
SWIDTH 810 0
DWIDTH 18 0
BBX 17 16 1 0
BITMAP
07E000
1FF800
381C00
600800
400000
C00000
C00000
81FF80
81FF80
800300
C00300
C00200
600600
300C00
1C3800
0FF000
ENDCHAR
STARTCHAR 0068
ENCODING 104
SWIDTH 540 0
DWIDTH 12 0
BBX 11 16 0 0
BITMAP
3060
3060
3060
3060
3060
3060
3060
FFE0
3060
3060
3060
3060
3060
3060
3060
3060
ENDCHAR
STARTCHAR 0069
ENCODING 105
SWIDTH 135 0
DWIDTH 3 0
BBX 6 17 -1 1
BITMAP
20
FC
30
30
08
00
00
30
30
30
30
30
30
30
30
30
30
ENDCHAR
STARTCHAR 006A
ENCODING 106
SWIDTH 450 0
DWIDTH 10 0
BBX 9 16 0 0
BITMAP
0380
0380
0180
0180
0180
0180
0180
0180
0180
0180
0180
0180
0180
C180
6300
3E00
ENDCHAR
STARTCHAR 006B
ENCODING 107
SWIDTH 495 0
DWIDTH 11 0
BBX 11 16 0 0
BITMAP
30C0
30C0
30C0
30C0
30C0
3080
3180
FF00
FF80
30C0
3040
3040
3060
3060
3060
3060
ENDCHAR
STARTCHAR 006C
ENCODING 108
SWIDTH 405 0
DWIDTH 9 0
BBX 8 16 1 0
BITMAP
C0
C0
C0
C0
C0
C0
C0
C0
C0
C0
C0
C0
C0
C0
FF
FF
ENDCHAR
STARTCHAR 006D
ENCODING 109
SWIDTH 855 0
DWIDTH 19 0
BBX 17 16 1 0
BITMAP
808180
C0C180
60E180
78F180
4CDD80
46CF80
43C380
41C180
40C180
40C180
40C180
40C180
40C180
40C180
40C180
40C180
ENDCHAR
STARTCHAR 006E
ENCODING 110
SWIDTH 495 0
DWIDTH 11 0
BBX 9 16 1 0
BITMAP
8180
C180
E180
F980
DD80
C780
C380
C180
C180
C180
C180
C180
C180
C180
C180
C180
ENDCHAR
STARTCHAR 006F
ENCODING 111
SWIDTH 810 0
DWIDTH 18 0
BBX 16 16 1 0
BITMAP
07E0
1FF8
381C
6006
4002
C003
C003
8001
8001
8001
C003
C003
6006
300C
1C38
0FF0
ENDCHAR
STARTCHAR 0070
ENCODING 112
SWIDTH 540 0
DWIDTH 12 0
BBX 12 16 0 0
BITMAP
3E00
3FC0
2060
2030
2030
2030
2030
2060
FFC0
FF80
2000
2000
2000
2000
2000
2000
ENDCHAR
STARTCHAR 0071
ENCODING 113
SWIDTH 810 0
DWIDTH 18 0
BBX 16 16 1 0
BITMAP
07E0
1FF8
381C
6006
4002
C003
C003
8001
8001
8001
C003
C033
603E
301C
1C3E
0FF6
ENDCHAR
STARTCHAR 0072
ENCODING 114
SWIDTH 540 0
DWIDTH 12 0
BBX 12 16 0 0
BITMAP
3E00
3FC0
3060
3030
3030
3030
3030
3060
FFC0
FFC0
30C0
3060
3060
3020
3020
3020
ENDCHAR
STARTCHAR 0073
ENCODING 115
SWIDTH 450 0
DWIDTH 10 0
BBX 9 16 1 0
BITMAP
3C00
7F00
4300
C180
C000
6000
3000
1C00
0E00
0300
0180
0180
8180
C180
6300
3E00
ENDCHAR
STARTCHAR 0074
ENCODING 116
SWIDTH 450 0
DWIDTH 10 0
BBX 10 16 0 0
BITMAP
FFC0
FFC0
0400
0400
0400
0400
0400
0400
0400
0400
0400
0400
0400
0400
0400
0400
ENDCHAR
STARTCHAR 0075
ENCODING 117
SWIDTH 495 0
DWIDTH 11 0
BBX 9 16 1 0
BITMAP
C180
C180
C180
C180
C180
C180
C180
C180
C180
C180
C180
C180
C180
C180
6300
3E00
ENDCHAR
STARTCHAR 0076
ENCODING 118
SWIDTH 450 0
DWIDTH 10 0
BBX 9 16 0 0
BITMAP
C180
C180
C180
C180
C180
C180
C180
C180
C180
C180
C180
4180
6300
6300
3600
1C00
ENDCHAR
STARTCHAR 0077
ENCODING 119
SWIDTH 765 0
DWIDTH 17 0
BBX 16 16 0 0
BITMAP
C181
C181
C181
C181
C181
C181
C181
C181
C183
C183
C183
41C3
63C2
6366
366C
1C38
ENDCHAR
STARTCHAR 0078
ENCODING 120
SWIDTH 495 0
DWIDTH 11 0
BBX 9 16 1 0
BITMAP
C080
C080
C080
C080
C180
4180
7F00
3F00
6300
C180
C180
C080
C080
C080
C080
C080
ENDCHAR
STARTCHAR 0079
ENCODING 121
SWIDTH 450 0
DWIDTH 10 0
BBX 9 16 1 0
BITMAP
8180
8180
8180
8180
8180
8180
8180
8180
C180
C180
6300
3E00
0800
0800
0800
0800
ENDCHAR
STARTCHAR 007A
ENCODING 122
SWIDTH 450 0
DWIDTH 10 0
BBX 11 16 0 0
BITMAP
7FE0
7FC0
00C0
0180
0180
0300
0200
0600
0C00
0C00
1800
1000
3000
6000
7FC0
FFC0
ENDCHAR
STARTCHAR 007B
ENCODING 123
SWIDTH 315 0
DWIDTH 7 0
BBX 5 21 1 -3
BITMAP
18
30
20
20
20
20
20
20
20
60
C0
60
20
20
20
20
20
20
20
30
18
ENDCHAR
STARTCHAR 007C
ENCODING 124
SWIDTH 135 0
DWIDTH 3 0
BBX 1 18 1 -2
BITMAP
80
80
80
80
80
80
80
80
80
80
80
80
80
80
80
80
80
80
ENDCHAR
STARTCHAR 007D
ENCODING 125
SWIDTH 315 0
DWIDTH 7 0
BBX 5 21 1 -3
BITMAP
E0
20
30
30
30
30
30
30
30
18
08
18
30
30
30
30
30
30
30
20
E0
ENDCHAR
STARTCHAR 007E
ENCODING 126
SWIDTH 495 0
DWIDTH 11 0
BBX 10 2 1 6
BITMAP
FE40
0FC0
ENDCHAR
STARTCHAR 00A1
ENCODING 161
SWIDTH 225 0
DWIDTH 5 0
BBX 3 15 1 -2
BITMAP
E0
E0
40
00
00
40
40
40
40
40
40
40
40
40
40
ENDCHAR
STARTCHAR 00A2
ENCODING 162
SWIDTH 495 0
DWIDTH 11 0
BBX 9 14 1 1
BITMAP
0400
0400
1F00
3580
6480
C400
C400
C400
C400
4400
6480
3F00
0400
0400
ENDCHAR
STARTCHAR 00A3
ENCODING 163
SWIDTH 495 0
DWIDTH 11 0
BBX 10 16 1 0
BITMAP
0780
1FC0
3000
3000
6000
6000
2000
3000
FF80
1800
1800
1800
1800
1800
F000
FFC0
ENDCHAR
STARTCHAR 00A4
ENCODING 164
SWIDTH 540 0
DWIDTH 12 0
BBX 10 10 1 2
BITMAP
C040
7F80
6180
4080
40C0
40C0
4080
2180
5FC0
0040
ENDCHAR
STARTCHAR 00A5
ENCODING 165
SWIDTH 585 0
DWIDTH 13 0
BBX 12 16 1 0
BITMAP
C030
6060
6060
30C0
30C0
1980
1980
0F00
0E00
3FC0
0600
3FC0
3FC0
0600
0600
0600
ENDCHAR
STARTCHAR 00A6
ENCODING 166
SWIDTH 135 0
DWIDTH 3 0
BBX 1 18 1 -2
BITMAP
80
80
80
80
80
80
80
00
00
00
00
00
80
80
80
80
80
80
ENDCHAR
STARTCHAR 00A7
ENCODING 167
SWIDTH 450 0
DWIDTH 10 0
BBX 8 18 1 -2
BITMAP
1C
7E
63
63
60
38
3C
67
C3
C1
C3
7E
18
0E
02
C2
66
3E
ENDCHAR
STARTCHAR 00A8
ENCODING 168
SWIDTH 315 0
DWIDTH 7 0
BBX 8 3 0 17
BITMAP
42
E7
E7
ENDCHAR
STARTCHAR 00A9
ENCODING 169
SWIDTH 810 0
DWIDTH 18 0
BBX 17 16 1 0
BITMAP
03E000
0C1800
300400
200200
43E300
463100
8C0100
880180
880180
8C0180
C42100
43E100
608200
300600
180C00
07F000
ENDCHAR
STARTCHAR 00AB
ENCODING 171
SWIDTH 495 0
DWIDTH 11 0
BBX 9 10 1 2
BITMAP
0880
1900
3300
2600
4400
CC00
6600
3200
1100
0980
ENDCHAR
STARTCHAR 00AC
ENCODING 172
SWIDTH 540 0
DWIDTH 12 0
BBX 10 6 1 2
BITMAP
FFC0
0040
0040
0040
0040
0040
ENDCHAR
STARTCHAR 00AE
ENCODING 174
SWIDTH 450 0
DWIDTH 10 0
BBX 9 9 1 7
BITMAP
3E00
4100
9D00
9480
BC80
9480
4100
2200
1C00
ENDCHAR
STARTCHAR 00AF
ENCODING 175
SWIDTH 270 0
DWIDTH 6 0
BBX 6 1 0 18
BITMAP
FC
ENDCHAR
STARTCHAR 00B0
ENCODING 176
SWIDTH 315 0
DWIDTH 7 0
BBX 5 5 1 11
BITMAP
70
C8
88
88
70
ENDCHAR
STARTCHAR 00B1
ENCODING 177
SWIDTH 540 0
DWIDTH 12 0
BBX 10 9 1 2
BITMAP
0C00
0C00
FFC0
FFC0
0C00
0C00
0000
FFC0
FFC0
ENDCHAR
STARTCHAR 00B4
ENCODING 180
SWIDTH 135 0
DWIDTH 3 0
BBX 3 3 0 17
BITMAP
20
40
C0
ENDCHAR
STARTCHAR 00B6
ENCODING 182
SWIDTH 450 0
DWIDTH 10 0
BBX 8 18 1 -2
BITMAP
1D
7D
7D
FD
FD
FD
7D
7D
1D
0D
0D
0D
0D
0D
0D
0D
0D
0D
ENDCHAR
STARTCHAR 00B7
ENCODING 183
SWIDTH 225 0
DWIDTH 5 0
BBX 3 3 1 4
BITMAP
E0
E0
60
ENDCHAR
STARTCHAR 00B8
ENCODING 184
SWIDTH 180 0
DWIDTH 4 0
BBX 5 5 0 -5
BITMAP
20
10
08
D8
70
ENDCHAR
STARTCHAR 00BB
ENCODING 187
SWIDTH 495 0
DWIDTH 11 0
BBX 9 10 1 2
BITMAP
CC00
6600
2200
1300
1980
0980
1900
3300
6600
4C00
ENDCHAR
STARTCHAR 00BF
ENCODING 191
SWIDTH 405 0
DWIDTH 9 0
BBX 7 15 1 -1
BITMAP
1C
18
00
00
00
18
18
10
30
60
40
C0
C2
C6
7C
ENDCHAR
STARTCHAR 00C0
ENCODING 192
SWIDTH 540 0
DWIDTH 12 0
BBX 11 20 1 0
BITMAP
1000
1800
0800
0000
1E00
7F00
6180
C180
C080
C080
C080
C080
C080
C080
C080
C080
C080
C080
FFE0
FFE0
ENDCHAR
STARTCHAR 00C1
ENCODING 193
SWIDTH 540 0
DWIDTH 12 0
BBX 11 20 1 0
BITMAP
0600
0400
0800
0000
1E00
7F00
6180
C180
C080
C080
C080
C080
C080
C080
C080
C080
C080
C080
FFE0
FFE0
ENDCHAR
STARTCHAR 00C2
ENCODING 194
SWIDTH 540 0
DWIDTH 12 0
BBX 11 20 1 0
BITMAP
0C00
1600
2200
0000
1E00
7F00
6180
C180
C080
C080
C080
C080
C080
C080
C080
C080
C080
C080
FFE0
FFE0
ENDCHAR
STARTCHAR 00C3
ENCODING 195
SWIDTH 540 0
DWIDTH 12 0
BBX 11 20 1 0
BITMAP
1000
3E00
0000
0000
1E00
7F00
6180
C180
C080
C080
C080
C080
C080
C080
C080
C080
C080
C080
FFE0
FFE0
ENDCHAR
STARTCHAR 00C4
ENCODING 196
SWIDTH 540 0
DWIDTH 12 0
BBX 11 20 1 0
BITMAP
2300
7380
7380
0000
1E00
7F00
6180
C180
C080
C080
C080
C080
C080
C080
C080
C080
C080
C080
FFE0
FFE0
ENDCHAR
STARTCHAR 00C5
ENCODING 197
SWIDTH 540 0
DWIDTH 12 0
BBX 11 21 1 0
BITMAP
1C00
1200
1200
1C00
0000
1E00
7F00
6180
C180
C080
C080
C080
C080
C080
C080
C080
C080
C080
C080
FFE0
FFE0
ENDCHAR
STARTCHAR 00C7
ENCODING 199
SWIDTH 675 0
DWIDTH 15 0
BBX 14 21 1 -5
BITMAP
07C0
1FF0
381C
6008
4000
C000
C000
8000
8000
8000
C000
C000
6000
300C
1C38
0FE0
0100
0180
0080
0480
0300
ENDCHAR
STARTCHAR 00C8
ENCODING 200
SWIDTH 450 0
DWIDTH 10 0
BBX 11 20 0 0
BITMAP
1800
0800
0400
0000
3F00
3F00
3000
3000
3000
3000
3000
FF80
FF80
3000
3000
3000
3000
3000
3FE0
3FE0
ENDCHAR
STARTCHAR 00C9
ENCODING 201
SWIDTH 450 0
DWIDTH 10 0
BBX 11 20 0 0
BITMAP
0200
0400
0C00
0000
3F00
3F00
3000
3000
3000
3000
3000
FF80
FF80
3000
3000
3000
3000
3000
3FE0
3FE0
ENDCHAR
STARTCHAR 00CA
ENCODING 202
SWIDTH 450 0
DWIDTH 10 0
BBX 11 20 0 0
BITMAP
0C00
1A00
3300
0000
3F00
3F00
3000
3000
3000
3000
3000
FF80
FF80
3000
3000
3000
3000
3000
3FE0
3FE0
ENDCHAR
STARTCHAR 00CB
ENCODING 203
SWIDTH 450 0
DWIDTH 10 0
BBX 11 20 0 0
BITMAP
3100
7380
3380
0000
3F00
3F00
3000
3000
3000
3000
3000
FF80
FF80
3000
3000
3000
3000
3000
3FE0
3FE0
ENDCHAR
STARTCHAR 00CC
ENCODING 204
SWIDTH 135 0
DWIDTH 3 0
BBX 3 14 0 0
BITMAP
80
40
60
00
60
60
60
60
60
60
60
60
60
60
ENDCHAR
STARTCHAR 00CD
ENCODING 205
SWIDTH 135 0
DWIDTH 3 0
BBX 3 14 1 0
BITMAP
20
40
C0
00
C0
C0
C0
C0
C0
C0
C0
C0
C0
C0
ENDCHAR
STARTCHAR 00CE
ENCODING 206
SWIDTH 135 0
DWIDTH 3 0
BBX 6 14 -1 0
BITMAP
30
78
CC
00
30
30
30
30
30
30
30
30
30
30
ENDCHAR
STARTCHAR 00CF
ENCODING 207
SWIDTH 135 0
DWIDTH 3 0
BBX 8 14 -2 0
BITMAP
42
E7
E7
00
18
18
18
18
18
18
18
18
18
18
ENDCHAR
STARTCHAR 00D1
ENCODING 209
SWIDTH 495 0
DWIDTH 11 0
BBX 9 19 1 1
BITMAP
3E00
0000
0000
8180
C180
E180
F980
DD80
C780
C380
C180
C180
C180
C180
C180
C180
C180
C180
C180
ENDCHAR
STARTCHAR 00D2
ENCODING 210
SWIDTH 810 0
DWIDTH 18 0
BBX 16 20 1 0
BITMAP
0200
0100
0180
0000
07E0
1FF8
381C
6006
4002
C003
C003
8001
8001
8001
C003
C003
6006
300C
1C38
0FF0
ENDCHAR
STARTCHAR 00D3
ENCODING 211
SWIDTH 810 0
DWIDTH 18 0
BBX 16 20 1 0
BITMAP
0040
0080
0180
0000
07E0
1FF8
381C
6006
4002
C003
C003
8001
8001
8001
C003
C003
6006
300C
1C38
0FF0
ENDCHAR
STARTCHAR 00D4
ENCODING 212
SWIDTH 810 0
DWIDTH 18 0
BBX 16 20 1 0
BITMAP
0180
03C0
0660
0000
07E0
1FF8
381C
6006
4002
C003
C003
8001
8001
8001
C003
C003
6006
300C
1C38
0FF0
ENDCHAR
STARTCHAR 00D5
ENCODING 213
SWIDTH 810 0
DWIDTH 18 0
BBX 16 20 1 0
BITMAP
0200
07C0
0000
0000
07E0
1FF8
381C
6006
4002
C003
C003
8001
8001
8001
C003
C003
6006
300C
1C38
0FF0
ENDCHAR
STARTCHAR 00D6
ENCODING 214
SWIDTH 810 0
DWIDTH 18 0
BBX 16 20 1 0
BITMAP
0420
0E70
0E70
0000
07E0
1FF8
381C
6006
4002
C003
C003
8001
8001
8001
C003
C003
6006
300C
1C38
0FF0
ENDCHAR
STARTCHAR 00D7
ENCODING 215
SWIDTH 495 0
DWIDTH 11 0
BBX 8 9 2 3
BITMAP
80
C3
66
3C
18
3C
66
C3
81
ENDCHAR
STARTCHAR 00D8
ENCODING 216
SWIDTH 765 0
DWIDTH 17 0
BBX 17 16 0 -1
BITMAP
03E100
0FFE00
180E00
300F00
601B00
603180
406180
40C180
C08180
410180
630180
660100
3C0300
380600
3E1C00
67F800
ENDCHAR
STARTCHAR 00D9
ENCODING 217
SWIDTH 495 0
DWIDTH 11 0
BBX 9 20 1 0
BITMAP
3000
1800
0800
0000
C180
C180
C180
C180
C180
C180
C180
C180
C180
C180
C180
C180
C180
C180
6300
3E00
ENDCHAR
STARTCHAR 00DA
ENCODING 218
SWIDTH 495 0
DWIDTH 11 0
BBX 9 20 1 0
BITMAP
0600
0C00
0800
0000
C180
C180
C180
C180
C180
C180
C180
C180
C180
C180
C180
C180
C180
C180
6300
3E00
ENDCHAR
STARTCHAR 00DB
ENCODING 219
SWIDTH 495 0
DWIDTH 11 0
BBX 9 20 1 0
BITMAP
1C00
1400
2200
0000
C180
C180
C180
C180
C180
C180
C180
C180
C180
C180
C180
C180
C180
C180
6300
3E00
ENDCHAR
STARTCHAR 00DC
ENCODING 220
SWIDTH 495 0
DWIDTH 11 0
BBX 9 20 1 0
BITMAP
2300
7700
7300
0000
C180
C180
C180
C180
C180
C180
C180
C180
C180
C180
C180
C180
C180
C180
6300
3E00
ENDCHAR
STARTCHAR 00DD
ENCODING 221
SWIDTH 450 0
DWIDTH 10 0
BBX 9 20 1 0
BITMAP
0400
0C00
0800
0000
8180
8180
8180
8180
8180
8180
8180
8180
C180
C180
6300
3E00
0800
0800
0800
0800
ENDCHAR
STARTCHAR 00E0
ENCODING 224
SWIDTH 540 0
DWIDTH 12 0
BBX 11 20 1 0
BITMAP
1000
1800
0800
0000
1E00
7F00
6180
C180
C080
C080
C080
C080
C080
C080
C080
C080
C080
C080
FFE0
FFE0
ENDCHAR
STARTCHAR 00E1
ENCODING 225
SWIDTH 540 0
DWIDTH 12 0
BBX 11 20 1 0
BITMAP
0600
0400
0800
0000
1E00
7F00
6180
C180
C080
C080
C080
C080
C080
C080
C080
C080
C080
C080
FFE0
FFE0
ENDCHAR
STARTCHAR 00E2
ENCODING 226
SWIDTH 540 0
DWIDTH 12 0
BBX 11 20 1 0
BITMAP
0C00
1600
2200
0000
1E00
7F00
6180
C180
C080
C080
C080
C080
C080
C080
C080
C080
C080
C080
FFE0
FFE0
ENDCHAR
STARTCHAR 00E3
ENCODING 227
SWIDTH 540 0
DWIDTH 12 0
BBX 11 20 1 0
BITMAP
1000
3E00
0000
0000
1E00
7F00
6180
C180
C080
C080
C080
C080
C080
C080
C080
C080
C080
C080
FFE0
FFE0
ENDCHAR
STARTCHAR 00E4
ENCODING 228
SWIDTH 540 0
DWIDTH 12 0
BBX 11 20 1 0
BITMAP
2300
7380
7380
0000
1E00
7F00
6180
C180
C080
C080
C080
C080
C080
C080
C080
C080
C080
C080
FFE0
FFE0
ENDCHAR
STARTCHAR 00E5
ENCODING 229
SWIDTH 540 0
DWIDTH 12 0
BBX 11 21 1 0
BITMAP
1C00
1200
1200
1C00
0000
1E00
7F00
6180
C180
C080
C080
C080
C080
C080
C080
C080
C080
C080
C080
FFE0
FFE0
ENDCHAR
STARTCHAR 00E7
ENCODING 231
SWIDTH 675 0
DWIDTH 15 0
BBX 14 21 1 -5
BITMAP
07C0
1FF0
381C
6008
4000
C000
C000
8000
8000
8000
C000
C000
6000
300C
1C38
0FE0
0100
0180
0080
0480
0300
ENDCHAR
STARTCHAR 00E8
ENCODING 232
SWIDTH 450 0
DWIDTH 10 0
BBX 11 20 0 0
BITMAP
1800
0800
0400
0000
3F00
3F00
3000
3000
3000
3000
3000
FF80
FF80
3000
3000
3000
3000
3000
3FE0
3FE0
ENDCHAR
STARTCHAR 00E9
ENCODING 233
SWIDTH 450 0
DWIDTH 10 0
BBX 11 20 0 0
BITMAP
0200
0400
0C00
0000
3F00
3F00
3000
3000
3000
3000
3000
FF80
FF80
3000
3000
3000
3000
3000
3FE0
3FE0
ENDCHAR
STARTCHAR 00EA
ENCODING 234
SWIDTH 450 0
DWIDTH 10 0
BBX 11 20 0 0
BITMAP
0C00
1A00
3300
0000
3F00
3F00
3000
3000
3000
3000
3000
FF80
FF80
3000
3000
3000
3000
3000
3FE0
3FE0
ENDCHAR
STARTCHAR 00EB
ENCODING 235
SWIDTH 450 0
DWIDTH 10 0
BBX 11 20 0 0
BITMAP
3100
7380
3380
0000
3F00
3F00
3000
3000
3000
3000
3000
FF80
FF80
3000
3000
3000
3000
3000
3FE0
3FE0
ENDCHAR
STARTCHAR 00EC
ENCODING 236
SWIDTH 135 0
DWIDTH 3 0
BBX 3 14 0 0
BITMAP
80
40
60
00
60
60
60
60
60
60
60
60
60
60
ENDCHAR
STARTCHAR 00ED
ENCODING 237
SWIDTH 135 0
DWIDTH 3 0
BBX 3 14 1 0
BITMAP
20
40
C0
00
C0
C0
C0
C0
C0
C0
C0
C0
C0
C0
ENDCHAR
STARTCHAR 00EE
ENCODING 238
SWIDTH 135 0
DWIDTH 3 0
BBX 6 14 -1 0
BITMAP
30
78
CC
00
30
30
30
30
30
30
30
30
30
30
ENDCHAR
STARTCHAR 00EF
ENCODING 239
SWIDTH 135 0
DWIDTH 3 0
BBX 8 14 -2 0
BITMAP
42
E7
E7
00
18
18
18
18
18
18
18
18
18
18
ENDCHAR
STARTCHAR 00F1
ENCODING 241
SWIDTH 495 0
DWIDTH 11 0
BBX 9 19 1 1
BITMAP
3E00
0000
0000
8180
C180
E180
F980
DD80
C780
C380
C180
C180
C180
C180
C180
C180
C180
C180
C180
ENDCHAR
STARTCHAR 00F2
ENCODING 242
SWIDTH 810 0
DWIDTH 18 0
BBX 16 20 1 0
BITMAP
0200
0100
0180
0000
07E0
1FF8
381C
6006
4002
C003
C003
8001
8001
8001
C003
C003
6006
300C
1C38
0FF0
ENDCHAR
STARTCHAR 00F3
ENCODING 243
SWIDTH 810 0
DWIDTH 18 0
BBX 16 20 1 0
BITMAP
0040
0080
0180
0000
07E0
1FF8
381C
6006
4002
C003
C003
8001
8001
8001
C003
C003
6006
300C
1C38
0FF0
ENDCHAR
STARTCHAR 00F4
ENCODING 244
SWIDTH 810 0
DWIDTH 18 0
BBX 16 20 1 0
BITMAP
0180
03C0
0660
0000
07E0
1FF8
381C
6006
4002
C003
C003
8001
8001
8001
C003
C003
6006
300C
1C38
0FF0
ENDCHAR
STARTCHAR 00F5
ENCODING 245
SWIDTH 810 0
DWIDTH 18 0
BBX 16 20 1 0
BITMAP
0200
07C0
0000
0000
07E0
1FF8
381C
6006
4002
C003
C003
8001
8001
8001
C003
C003
6006
300C
1C38
0FF0
ENDCHAR
STARTCHAR 00F6
ENCODING 246
SWIDTH 810 0
DWIDTH 18 0
BBX 16 20 1 0
BITMAP
0420
0E70
0E70
0000
07E0
1FF8
381C
6006
4002
C003
C003
8001
8001
8001
C003
C003
6006
300C
1C38
0FF0
ENDCHAR
STARTCHAR 00F7
ENCODING 247
SWIDTH 540 0
DWIDTH 12 0
BBX 10 10 1 2
BITMAP
0C00
0C00
0C00
0000
FFC0
FFC0
0000
0C00
0C00
0400
ENDCHAR
STARTCHAR 00F8
ENCODING 248
SWIDTH 765 0
DWIDTH 17 0
BBX 17 16 0 -1
BITMAP
03E100
0FFE00
180E00
300F00
601B00
603180
406180
40C180
C08180
410180
630180
660100
3C0300
380600
3E1C00
67F800
ENDCHAR
STARTCHAR 00F9
ENCODING 249
SWIDTH 495 0
DWIDTH 11 0
BBX 9 20 1 0
BITMAP
3000
1800
0800
0000
C180
C180
C180
C180
C180
C180
C180
C180
C180
C180
C180
C180
C180
C180
6300
3E00
ENDCHAR
STARTCHAR 00FA
ENCODING 250
SWIDTH 495 0
DWIDTH 11 0
BBX 9 20 1 0
BITMAP
0600
0C00
0800
0000
C180
C180
C180
C180
C180
C180
C180
C180
C180
C180
C180
C180
C180
C180
6300
3E00
ENDCHAR
STARTCHAR 00FB
ENCODING 251
SWIDTH 495 0
DWIDTH 11 0
BBX 9 20 1 0
BITMAP
1C00
1400
2200
0000
C180
C180
C180
C180
C180
C180
C180
C180
C180
C180
C180
C180
C180
C180
6300
3E00
ENDCHAR
STARTCHAR 00FC
ENCODING 252
SWIDTH 495 0
DWIDTH 11 0
BBX 9 20 1 0
BITMAP
2300
7700
7300
0000
C180
C180
C180
C180
C180
C180
C180
C180
C180
C180
C180
C180
C180
C180
6300
3E00
ENDCHAR
STARTCHAR 00FD
ENCODING 253
SWIDTH 450 0
DWIDTH 10 0
BBX 9 20 1 0
BITMAP
0400
0C00
0800
0000
8180
8180
8180
8180
8180
8180
8180
8180
C180
C180
6300
3E00
0800
0800
0800
0800
ENDCHAR
STARTCHAR 00FF
ENCODING 255
SWIDTH 450 0
DWIDTH 10 0
BBX 9 20 1 0
BITMAP
6300
7700
7700
0000
8180
8180
8180
8180
8180
8180
8180
8180
C180
C180
6300
3E00
0800
0800
0800
0800
ENDCHAR
STARTCHAR 0100
ENCODING 256
SWIDTH 540 0
DWIDTH 12 0
BBX 11 19 1 0
BITMAP
3F00
0000
0000
1E00
7F00
6180
C180
C080
C080
C080
C080
C080
C080
C080
C080
C080
C080
FFE0
FFE0
ENDCHAR
STARTCHAR 0101
ENCODING 257
SWIDTH 540 0
DWIDTH 12 0
BBX 11 19 1 0
BITMAP
3F00
0000
0000
1E00
7F00
6180
C180
C080
C080
C080
C080
C080
C080
C080
C080
C080
C080
FFE0
FFE0
ENDCHAR
STARTCHAR 0102
ENCODING 258
SWIDTH 540 0
DWIDTH 12 0
BBX 11 20 1 0
BITMAP
2300
2200
1E00
0000
1E00
7F00
6180
C180
C080
C080
C080
C080
C080
C080
C080
C080
C080
C080
FFE0
FFE0
ENDCHAR
STARTCHAR 0103
ENCODING 259
SWIDTH 540 0
DWIDTH 12 0
BBX 11 20 1 0
BITMAP
2300
2200
1E00
0000
1E00
7F00
6180
C180
C080
C080
C080
C080
C080
C080
C080
C080
C080
C080
FFE0
FFE0
ENDCHAR
STARTCHAR 0104
ENCODING 260
SWIDTH 540 0
DWIDTH 12 0
BBX 11 20 1 -4
BITMAP
1E00
7F00
6180
C180
C080
C080
C080
C080
C080
C080
C080
C080
C080
C080
FFE0
FFE0
00C0
0080
0080
00E0
ENDCHAR
STARTCHAR 0105
ENCODING 261
SWIDTH 540 0
DWIDTH 12 0
BBX 11 20 1 -4
BITMAP
1E00
7F00
6180
C180
C080
C080
C080
C080
C080
C080
C080
C080
C080
C080
FFE0
FFE0
00C0
0080
0080
00E0
ENDCHAR
STARTCHAR 0106
ENCODING 262
SWIDTH 675 0
DWIDTH 15 0
BBX 14 20 1 0
BITMAP
00C0
0080
0100
0000
07C0
1FF0
381C
6008
4000
C000
C000
8000
8000
8000
C000
C000
6000
300C
1C38
0FE0
ENDCHAR
STARTCHAR 0107
ENCODING 263
SWIDTH 675 0
DWIDTH 15 0
BBX 14 20 1 0
BITMAP
00C0
0080
0100
0000
07C0
1FF0
381C
6008
4000
C000
C000
8000
8000
8000
C000
C000
6000
300C
1C38
0FE0
ENDCHAR
STARTCHAR 010A
ENCODING 266
SWIDTH 675 0
DWIDTH 15 0
BBX 14 20 1 0
BITMAP
0180
03C0
0180
0000
07C0
1FF0
381C
6008
4000
C000
C000
8000
8000
8000
C000
C000
6000
300C
1C38
0FE0
ENDCHAR
STARTCHAR 010B
ENCODING 267
SWIDTH 675 0
DWIDTH 15 0
BBX 14 20 1 0
BITMAP
0180
03C0
0180
0000
07C0
1FF0
381C
6008
4000
C000
C000
8000
8000
8000
C000
C000
6000
300C
1C38
0FE0
ENDCHAR
STARTCHAR 010C
ENCODING 268
SWIDTH 675 0
DWIDTH 15 0
BBX 14 20 1 0
BITMAP
0660
02C0
0180
0000
07C0
1FF0
381C
6008
4000
C000
C000
8000
8000
8000
C000
C000
6000
300C
1C38
0FE0
ENDCHAR
STARTCHAR 010D
ENCODING 269
SWIDTH 675 0
DWIDTH 15 0
BBX 14 20 1 0
BITMAP
0660
02C0
0180
0000
07C0
1FF0
381C
6008
4000
C000
C000
8000
8000
8000
C000
C000
6000
300C
1C38
0FE0
ENDCHAR
STARTCHAR 010E
ENCODING 270
SWIDTH 630 0
DWIDTH 14 0
BBX 12 20 1 0
BITMAP
3300
1600
0C00
0000
F800
FF80
C1C0
C060
C030
C030
C010
C010
C010
C010
C030
C030
C060
C0E0
FF80
FE00
ENDCHAR
STARTCHAR 010F
ENCODING 271
SWIDTH 630 0
DWIDTH 14 0
BBX 12 20 1 0
BITMAP
3300
1600
0C00
0000
F800
FF80
C1C0
C060
C030
C030
C010
C010
C010
C010
C030
C030
C060
C0E0
FF80
FE00
ENDCHAR
STARTCHAR 0110
ENCODING 272
SWIDTH 675 0
DWIDTH 15 0
BBX 14 16 0 0
BITMAP
3E00
3FE0
3070
3018
3008
300C
300C
FF04
FF04
3004
300C
300C
3018
3030
3FE0
3F80
ENDCHAR
STARTCHAR 0111
ENCODING 273
SWIDTH 675 0
DWIDTH 15 0
BBX 14 16 0 0
BITMAP
3E00
3FE0
3070
3018
3008
300C
300C
FF04
FF04
3004
300C
300C
3018
3030
3FE0
3F80
ENDCHAR
STARTCHAR 0112
ENCODING 274
SWIDTH 450 0
DWIDTH 10 0
BBX 11 19 0 0
BITMAP
3F00
0000
0000
3F00
3F00
3000
3000
3000
3000
3000
FF80
FF80
3000
3000
3000
3000
3000
3FE0
3FE0
ENDCHAR
STARTCHAR 0113
ENCODING 275
SWIDTH 450 0
DWIDTH 10 0
BBX 11 19 0 0
BITMAP
3F00
0000
0000
3F00
3F00
3000
3000
3000
3000
3000
FF80
FF80
3000
3000
3000
3000
3000
3FE0
3FE0
ENDCHAR
STARTCHAR 0116
ENCODING 278
SWIDTH 450 0
DWIDTH 10 0
BBX 11 20 0 0
BITMAP
0E00
0E00
0C00
0000
3F00
3F00
3000
3000
3000
3000
3000
FF80
FF80
3000
3000
3000
3000
3000
3FE0
3FE0
ENDCHAR
STARTCHAR 0117
ENCODING 279
SWIDTH 450 0
DWIDTH 10 0
BBX 11 20 0 0
BITMAP
0E00
0E00
0C00
0000
3F00
3F00
3000
3000
3000
3000
3000
FF80
FF80
3000
3000
3000
3000
3000
3FE0
3FE0
ENDCHAR
STARTCHAR 0118
ENCODING 280
SWIDTH 450 0
DWIDTH 10 0
BBX 11 20 0 -4
BITMAP
3F00
3F00
3000
3000
3000
3000
3000
FF80
FF80
3000
3000
3000
3000
3000
3FE0
3FE0
0080
0080
0080
00E0
ENDCHAR
STARTCHAR 0119
ENCODING 281
SWIDTH 450 0
DWIDTH 10 0
BBX 11 20 0 -4
BITMAP
3F00
3F00
3000
3000
3000
3000
3000
FF80
FF80
3000
3000
3000
3000
3000
3FE0
3FE0
0080
0080
0080
00E0
ENDCHAR
STARTCHAR 011A
ENCODING 282
SWIDTH 450 0
DWIDTH 10 0
BBX 11 20 0 0
BITMAP
3300
1A00
0C00
0000
3F00
3F00
3000
3000
3000
3000
3000
FF80
FF80
3000
3000
3000
3000
3000
3FE0
3FE0
ENDCHAR
STARTCHAR 011B
ENCODING 283
SWIDTH 450 0
DWIDTH 10 0
BBX 11 20 0 0
BITMAP
3300
1A00
0C00
0000
3F00
3F00
3000
3000
3000
3000
3000
FF80
FF80
3000
3000
3000
3000
3000
3FE0
3FE0
ENDCHAR
STARTCHAR 011E
ENCODING 286
SWIDTH 810 0
DWIDTH 18 0
BBX 17 20 1 0
BITMAP
042000
066000
03C000
000000
07E000
1FF800
381C00
600800
400000
C00000
C00000
81FF80
81FF80
800300
C00300
C00200
600600
300C00
1C3800
0FF000
ENDCHAR
STARTCHAR 011F
ENCODING 287
SWIDTH 810 0
DWIDTH 18 0
BBX 17 20 1 0
BITMAP
042000
066000
03C000
000000
07E000
1FF800
381C00
600800
400000
C00000
C00000
81FF80
81FF80
800300
C00300
C00200
600600
300C00
1C3800
0FF000
ENDCHAR
STARTCHAR 0120
ENCODING 288
SWIDTH 810 0
DWIDTH 18 0
BBX 17 20 1 0
BITMAP
018000
03C000
018000
000000
07E000
1FF800
381C00
600800
400000
C00000
C00000
81FF80
81FF80
800300
C00300
C00200
600600
300C00
1C3800
0FF000
ENDCHAR
STARTCHAR 0121
ENCODING 289
SWIDTH 810 0
DWIDTH 18 0
BBX 17 20 1 0
BITMAP
018000
03C000
018000
000000
07E000
1FF800
381C00
600800
400000
C00000
C00000
81FF80
81FF80
800300
C00300
C00200
600600
300C00
1C3800
0FF000
ENDCHAR
STARTCHAR 0124
ENCODING 292
SWIDTH 540 0
DWIDTH 12 0
BBX 11 20 0 0
BITMAP
0700
0500
0880
0000
3060
3060
3060
3060
3060
3060
3060
FFE0
3060
3060
3060
3060
3060
3060
3060
3060
ENDCHAR
STARTCHAR 0125
ENCODING 293
SWIDTH 540 0
DWIDTH 12 0
BBX 11 20 0 0
BITMAP
0700
0500
0880
0000
3060
3060
3060
3060
3060
3060
3060
FFE0
3060
3060
3060
3060
3060
3060
3060
3060
ENDCHAR
STARTCHAR 0128
ENCODING 296
SWIDTH 135 0
DWIDTH 3 0
BBX 5 14 -1 0
BITMAP
40
F8
00
00
30
30
30
30
30
30
30
30
30
30
ENDCHAR
STARTCHAR 0129
ENCODING 297
SWIDTH 135 0
DWIDTH 3 0
BBX 5 14 -1 0
BITMAP
40
F8
00
00
30
30
30
30
30
30
30
30
30
30
ENDCHAR
STARTCHAR 012A
ENCODING 298
SWIDTH 135 0
DWIDTH 3 0
BBX 6 13 -1 0
BITMAP
FC
00
00
30
30
30
30
30
30
30
30
30
30
ENDCHAR
STARTCHAR 012B
ENCODING 299
SWIDTH 135 0
DWIDTH 3 0
BBX 6 13 -1 0
BITMAP
FC
00
00
30
30
30
30
30
30
30
30
30
30
ENDCHAR
STARTCHAR 012E
ENCODING 302
SWIDTH 135 0
DWIDTH 3 0
BBX 6 21 -1 -3
BITMAP
20
FC
30
30
08
00
00
30
30
30
30
30
30
30
30
30
30
40
40
40
70
ENDCHAR
STARTCHAR 012F
ENCODING 303
SWIDTH 135 0
DWIDTH 3 0
BBX 6 21 -1 -3
BITMAP
20
FC
30
30
08
00
00
30
30
30
30
30
30
30
30
30
30
40
40
40
70
ENDCHAR
STARTCHAR 0130
ENCODING 304
SWIDTH 135 0
DWIDTH 3 0
BBX 3 14 1 0
BITMAP
C0
E0
C0
00
C0
C0
C0
C0
C0
C0
C0
C0
C0
C0
ENDCHAR
STARTCHAR 0139
ENCODING 313
SWIDTH 405 0
DWIDTH 9 0
BBX 8 20 1 0
BITMAP
20
40
C0
00
C0
C0
C0
C0
C0
C0
C0
C0
C0
C0
C0
C0
C0
C0
FF
FF
ENDCHAR
STARTCHAR 013A
ENCODING 314
SWIDTH 405 0
DWIDTH 9 0
BBX 8 20 1 0
BITMAP
20
40
C0
00
C0
C0
C0
C0
C0
C0
C0
C0
C0
C0
C0
C0
C0
C0
FF
FF
ENDCHAR
STARTCHAR 013D
ENCODING 317
SWIDTH 405 0
DWIDTH 9 0
BBX 10 20 -1 0
BITMAP
CC00
7800
3000
0000
3000
3000
3000
3000
3000
3000
3000
3000
3000
3000
3000
3000
3000
3000
3FC0
3FC0
ENDCHAR
STARTCHAR 013E
ENCODING 318
SWIDTH 405 0
DWIDTH 9 0
BBX 10 20 -1 0
BITMAP
CC00
7800
3000
0000
3000
3000
3000
3000
3000
3000
3000
3000
3000
3000
3000
3000
3000
3000
3FC0
3FC0
ENDCHAR
STARTCHAR 0141
ENCODING 321
SWIDTH 450 0
DWIDTH 10 0
BBX 10 16 0 0
BITMAP
3000
3000
3000
3000
3000
3000
3600
3C00
7000
F000
3000
3000
3000
3000
3FC0
3FC0
ENDCHAR
STARTCHAR 0142
ENCODING 322
SWIDTH 450 0
DWIDTH 10 0
BBX 10 16 0 0
BITMAP
3000
3000
3000
3000
3000
3000
3600
3C00
7000
F000
3000
3000
3000
3000
3FC0
3FC0
ENDCHAR
STARTCHAR 0143
ENCODING 323
SWIDTH 495 0
DWIDTH 11 0
BBX 9 20 1 0
BITMAP
0600
0C00
0800
0000
8180
C180
E180
F980
DD80
C780
C380
C180
C180
C180
C180
C180
C180
C180
C180
C180
ENDCHAR
STARTCHAR 0144
ENCODING 324
SWIDTH 495 0
DWIDTH 11 0
BBX 9 20 1 0
BITMAP
0600
0C00
0800
0000
8180
C180
E180
F980
DD80
C780
C380
C180
C180
C180
C180
C180
C180
C180
C180
C180
ENDCHAR
STARTCHAR 0147
ENCODING 327
SWIDTH 495 0
DWIDTH 11 0
BBX 9 20 1 0
BITMAP
2200
1600
1C00
0000
8180
C180
E180
F980
DD80
C780
C380
C180
C180
C180
C180
C180
C180
C180
C180
C180
ENDCHAR
STARTCHAR 0148
ENCODING 328
SWIDTH 495 0
DWIDTH 11 0
BBX 9 20 1 0
BITMAP
2200
1600
1C00
0000
8180
C180
E180
F980
DD80
C780
C380
C180
C180
C180
C180
C180
C180
C180
C180
C180
ENDCHAR
STARTCHAR 014C
ENCODING 332
SWIDTH 810 0
DWIDTH 18 0
BBX 16 19 1 0
BITMAP
07E0
0000
0000
07E0
1FF8
381C
6006
4002
C003
C003
8001
8001
8001
C003
C003
6006
300C
1C38
0FF0
ENDCHAR
STARTCHAR 014D
ENCODING 333
SWIDTH 810 0
DWIDTH 18 0
BBX 16 19 1 0
BITMAP
07E0
0000
0000
07E0
1FF8
381C
6006
4002
C003
C003
8001
8001
8001
C003
C003
6006
300C
1C38
0FF0
ENDCHAR
STARTCHAR 0150
ENCODING 336
SWIDTH 810 0
DWIDTH 18 0
BBX 16 20 1 0
BITMAP
0110
0320
0260
0000
07E0
1FF8
381C
6006
4002
C003
C003
8001
8001
8001
C003
C003
6006
300C
1C38
0FF0
ENDCHAR
STARTCHAR 0151
ENCODING 337
SWIDTH 810 0
DWIDTH 18 0
BBX 16 20 1 0
BITMAP
0110
0320
0260
0000
07E0
1FF8
381C
6006
4002
C003
C003
8001
8001
8001
C003
C003
6006
300C
1C38
0FF0
ENDCHAR
STARTCHAR 0154
ENCODING 340
SWIDTH 540 0
DWIDTH 12 0
BBX 12 20 0 0
BITMAP
0100
0300
0600
0000
3E00
3FC0
3060
3030
3030
3030
3030
3060
FFC0
FFC0
30C0
3060
3060
3020
3020
3020
ENDCHAR
STARTCHAR 0155
ENCODING 341
SWIDTH 540 0
DWIDTH 12 0
BBX 12 20 0 0
BITMAP
0100
0300
0600
0000
3E00
3FC0
3060
3030
3030
3030
3030
3060
FFC0
FFC0
30C0
3060
3060
3020
3020
3020
ENDCHAR
STARTCHAR 0158
ENCODING 344
SWIDTH 540 0
DWIDTH 12 0
BBX 12 20 0 0
BITMAP
1880
0D00
0600
0000
3E00
3FC0
3060
3030
3030
3030
3030
3060
FFC0
FFC0
30C0
3060
3060
3020
3020
3020
ENDCHAR
STARTCHAR 0159
ENCODING 345
SWIDTH 540 0
DWIDTH 12 0
BBX 12 20 0 0
BITMAP
1880
0D00
0600
0000
3E00
3FC0
3060
3030
3030
3030
3030
3060
FFC0
FFC0
30C0
3060
3060
3020
3020
3020
ENDCHAR
STARTCHAR 015A
ENCODING 346
SWIDTH 450 0
DWIDTH 10 0
BBX 9 20 1 0
BITMAP
0400
0C00
0800
0000
3C00
7F00
4300
C180
C000
6000
3000
1C00
0E00
0300
0180
0180
8180
C180
6300
3E00
ENDCHAR
STARTCHAR 015B
ENCODING 347
SWIDTH 450 0
DWIDTH 10 0
BBX 9 20 1 0
BITMAP
0400
0C00
0800
0000
3C00
7F00
4300
C180
C000
6000
3000
1C00
0E00
0300
0180
0180
8180
C180
6300
3E00
ENDCHAR
STARTCHAR 015E
ENCODING 350
SWIDTH 450 0
DWIDTH 10 0
BBX 9 21 1 -5
BITMAP
3C00
7F00
4300
C180
C000
6000
3000
1C00
0E00
0300
0180
0180
8180
C180
6300
3E00
0800
0400
0400
2400
1800
ENDCHAR
STARTCHAR 015F
ENCODING 351
SWIDTH 450 0
DWIDTH 10 0
BBX 9 21 1 -5
BITMAP
3C00
7F00
4300
C180
C000
6000
3000
1C00
0E00
0300
0180
0180
8180
C180
6300
3E00
0800
0400
0400
2400
1800
ENDCHAR
STARTCHAR 0160
ENCODING 352
SWIDTH 450 0
DWIDTH 10 0
BBX 9 20 1 0
BITMAP
2200
3400
1C00
0000
3C00
7F00
4300
C180
C000
6000
3000
1C00
0E00
0300
0180
0180
8180
C180
6300
3E00
ENDCHAR
STARTCHAR 0161
ENCODING 353
SWIDTH 450 0
DWIDTH 10 0
BBX 9 20 1 0
BITMAP
2200
3400
1C00
0000
3C00
7F00
4300
C180
C000
6000
3000
1C00
0E00
0300
0180
0180
8180
C180
6300
3E00
ENDCHAR
STARTCHAR 0162
ENCODING 354
SWIDTH 450 0
DWIDTH 10 0
BBX 10 21 0 -5
BITMAP
FFC0
FFC0
0400
0400
0400
0400
0400
0400
0400
0400
0400
0400
0400
0400
0400
0400
0400
0600
0200
1200
0C00
ENDCHAR
STARTCHAR 0163
ENCODING 355
SWIDTH 450 0
DWIDTH 10 0
BBX 10 21 0 -5
BITMAP
FFC0
FFC0
0400
0400
0400
0400
0400
0400
0400
0400
0400
0400
0400
0400
0400
0400
0400
0600
0200
1200
0C00
ENDCHAR
STARTCHAR 0164
ENCODING 356
SWIDTH 450 0
DWIDTH 10 0
BBX 10 20 0 0
BITMAP
1100
1A00
0E00
0000
FFC0
FFC0
0400
0400
0400
0400
0400
0400
0400
0400
0400
0400
0400
0400
0400
0400
ENDCHAR
STARTCHAR 0165
ENCODING 357
SWIDTH 450 0
DWIDTH 10 0
BBX 10 20 0 0
BITMAP
1100
1A00
0E00
0000
FFC0
FFC0
0400
0400
0400
0400
0400
0400
0400
0400
0400
0400
0400
0400
0400
0400
ENDCHAR
STARTCHAR 0168
ENCODING 360
SWIDTH 495 0
DWIDTH 11 0
BBX 9 19 1 1
BITMAP
3E00
0000
0000
C180
C180
C180
C180
C180
C180
C180
C180
C180
C180
C180
C180
C180
C180
6300
3E00
ENDCHAR
STARTCHAR 0169
ENCODING 361
SWIDTH 495 0
DWIDTH 11 0
BBX 9 19 1 1
BITMAP
3E00
0000
0000
C180
C180
C180
C180
C180
C180
C180
C180
C180
C180
C180
C180
C180
C180
6300
3E00
ENDCHAR
STARTCHAR 016A
ENCODING 362
SWIDTH 495 0
DWIDTH 11 0
BBX 9 19 1 0
BITMAP
7F00
0000
0000
C180
C180
C180
C180
C180
C180
C180
C180
C180
C180
C180
C180
C180
C180
6300
3E00
ENDCHAR
STARTCHAR 016B
ENCODING 363
SWIDTH 495 0
DWIDTH 11 0
BBX 9 19 1 0
BITMAP
7F00
0000
0000
C180
C180
C180
C180
C180
C180
C180
C180
C180
C180
C180
C180
C180
C180
6300
3E00
ENDCHAR
STARTCHAR 016E
ENCODING 366
SWIDTH 495 0
DWIDTH 11 0
BBX 9 21 1 0
BITMAP
1C00
2200
2200
1C00
0000
C180
C180
C180
C180
C180
C180
C180
C180
C180
C180
C180
C180
C180
C180
6300
3E00
ENDCHAR
STARTCHAR 016F
ENCODING 367
SWIDTH 495 0
DWIDTH 11 0
BBX 9 21 1 0
BITMAP
1C00
2200
2200
1C00
0000
C180
C180
C180
C180
C180
C180
C180
C180
C180
C180
C180
C180
C180
C180
6300
3E00
ENDCHAR
STARTCHAR 0170
ENCODING 368
SWIDTH 495 0
DWIDTH 11 0
BBX 9 20 1 0
BITMAP
1980
1100
2200
0000
C180
C180
C180
C180
C180
C180
C180
C180
C180
C180
C180
C180
C180
C180
6300
3E00
ENDCHAR
STARTCHAR 0171
ENCODING 369
SWIDTH 495 0
DWIDTH 11 0
BBX 9 20 1 0
BITMAP
1980
1100
2200
0000
C180
C180
C180
C180
C180
C180
C180
C180
C180
C180
C180
C180
C180
C180
6300
3E00
ENDCHAR
STARTCHAR 0172
ENCODING 370
SWIDTH 495 0
DWIDTH 11 0
BBX 9 20 1 -4
BITMAP
C180
C180
C180
C180
C180
C180
C180
C180
C180
C180
C180
C180
C180
C180
6300
3E00
1800
1000
1000
1C00
ENDCHAR
STARTCHAR 0173
ENCODING 371
SWIDTH 495 0
DWIDTH 11 0
BBX 9 20 1 -4
BITMAP
C180
C180
C180
C180
C180
C180
C180
C180
C180
C180
C180
C180
C180
C180
6300
3E00
1800
1000
1000
1C00
ENDCHAR
STARTCHAR 0176
ENCODING 374
SWIDTH 450 0
DWIDTH 10 0
BBX 9 20 1 0
BITMAP
1C00
3400
2200
0000
8180
8180
8180
8180
8180
8180
8180
8180
C180
C180
6300
3E00
0800
0800
0800
0800
ENDCHAR
STARTCHAR 0177
ENCODING 375
SWIDTH 450 0
DWIDTH 10 0
BBX 9 20 1 0
BITMAP
1C00
3400
2200
0000
8180
8180
8180
8180
8180
8180
8180
8180
C180
C180
6300
3E00
0800
0800
0800
0800
ENDCHAR
STARTCHAR 0178
ENCODING 376
SWIDTH 450 0
DWIDTH 10 0
BBX 9 20 1 0
BITMAP
6300
7700
7700
0000
8180
8180
8180
8180
8180
8180
8180
8180
C180
C180
6300
3E00
0800
0800
0800
0800
ENDCHAR
STARTCHAR 0179
ENCODING 377
SWIDTH 450 0
DWIDTH 10 0
BBX 11 20 0 0
BITMAP
0300
0600
0400
0000
7FE0
7FC0
00C0
0180
0180
0300
0200
0600
0C00
0C00
1800
1000
3000
6000
7FC0
FFC0
ENDCHAR
STARTCHAR 017A
ENCODING 378
SWIDTH 450 0
DWIDTH 10 0
BBX 11 20 0 0
BITMAP
0300
0600
0400
0000
7FE0
7FC0
00C0
0180
0180
0300
0200
0600
0C00
0C00
1800
1000
3000
6000
7FC0
FFC0
ENDCHAR
STARTCHAR 017B
ENCODING 379
SWIDTH 450 0
DWIDTH 10 0
BBX 11 20 0 0
BITMAP
0E00
0E00
0600
0000
7FE0
7FC0
00C0
0180
0180
0300
0200
0600
0C00
0C00
1800
1000
3000
6000
7FC0
FFC0
ENDCHAR
STARTCHAR 017C
ENCODING 380
SWIDTH 450 0
DWIDTH 10 0
BBX 11 20 0 0
BITMAP
0E00
0E00
0600
0000
7FE0
7FC0
00C0
0180
0180
0300
0200
0600
0C00
0C00
1800
1000
3000
6000
7FC0
FFC0
ENDCHAR
STARTCHAR 017D
ENCODING 381
SWIDTH 450 0
DWIDTH 10 0
BBX 11 20 0 0
BITMAP
1100
0B00
0E00
0000
7FE0
7FC0
00C0
0180
0180
0300
0200
0600
0C00
0C00
1800
1000
3000
6000
7FC0
FFC0
ENDCHAR
STARTCHAR 017E
ENCODING 382
SWIDTH 450 0
DWIDTH 10 0
BBX 11 20 0 0
BITMAP
1100
0B00
0E00
0000
7FE0
7FC0
00C0
0180
0180
0300
0200
0600
0C00
0C00
1800
1000
3000
6000
7FC0
FFC0
ENDCHAR
STARTCHAR 01A0
ENCODING 416
SWIDTH 810 0
DWIDTH 18 0
BBX 16 18 1 0
BITMAP
0004
0004
07EC
1FF8
381C
6006
4002
C003
C003
8001
8001
8001
C003
C003
6006
300C
1C38
0FF0
ENDCHAR
STARTCHAR 01A1
ENCODING 417
SWIDTH 810 0
DWIDTH 18 0
BBX 16 18 1 0
BITMAP
0004
0004
07EC
1FF8
381C
6006
4002
C003
C003
8001
8001
8001
C003
C003
6006
300C
1C38
0FF0
ENDCHAR
STARTCHAR 01AF
ENCODING 431
SWIDTH 495 0
DWIDTH 11 0
BBX 11 18 1 0
BITMAP
0060
0060
C1C0
C180
C180
C180
C180
C180
C180
C180
C180
C180
C180
C180
C180
C180
6300
3E00
ENDCHAR
STARTCHAR 01B0
ENCODING 432
SWIDTH 495 0
DWIDTH 11 0
BBX 11 18 1 0
BITMAP
0060
0060
C1C0
C180
C180
C180
C180
C180
C180
C180
C180
C180
C180
C180
C180
C180
6300
3E00
ENDCHAR
STARTCHAR 01CD
ENCODING 461
SWIDTH 540 0
DWIDTH 12 0
BBX 11 20 1 0
BITMAP
2200
1600
0C00
0000
1E00
7F00
6180
C180
C080
C080
C080
C080
C080
C080
C080
C080
C080
C080
FFE0
FFE0
ENDCHAR
STARTCHAR 01CE
ENCODING 462
SWIDTH 540 0
DWIDTH 12 0
BBX 11 20 1 0
BITMAP
2200
1600
0C00
0000
1E00
7F00
6180
C180
C080
C080
C080
C080
C080
C080
C080
C080
C080
C080
FFE0
FFE0
ENDCHAR
STARTCHAR 01CF
ENCODING 463
SWIDTH 135 0
DWIDTH 3 0
BBX 6 14 -1 0
BITMAP
CC
78
30
00
30
30
30
30
30
30
30
30
30
30
ENDCHAR
STARTCHAR 01D0
ENCODING 464
SWIDTH 135 0
DWIDTH 3 0
BBX 6 14 -1 0
BITMAP
CC
78
30
00
30
30
30
30
30
30
30
30
30
30
ENDCHAR
STARTCHAR 01D1
ENCODING 465
SWIDTH 810 0
DWIDTH 18 0
BBX 16 20 1 0
BITMAP
0660
03C0
0180
0000
07E0
1FF8
381C
6006
4002
C003
C003
8001
8001
8001
C003
C003
6006
300C
1C38
0FF0
ENDCHAR
STARTCHAR 01D2
ENCODING 466
SWIDTH 810 0
DWIDTH 18 0
BBX 16 20 1 0
BITMAP
0660
03C0
0180
0000
07E0
1FF8
381C
6006
4002
C003
C003
8001
8001
8001
C003
C003
6006
300C
1C38
0FF0
ENDCHAR
STARTCHAR 01D3
ENCODING 467
SWIDTH 495 0
DWIDTH 11 0
BBX 9 20 1 0
BITMAP
2200
1600
1C00
0000
C180
C180
C180
C180
C180
C180
C180
C180
C180
C180
C180
C180
C180
C180
6300
3E00
ENDCHAR
STARTCHAR 01D4
ENCODING 468
SWIDTH 495 0
DWIDTH 11 0
BBX 9 20 1 0
BITMAP
2200
1600
1C00
0000
C180
C180
C180
C180
C180
C180
C180
C180
C180
C180
C180
C180
C180
C180
6300
3E00
ENDCHAR
STARTCHAR 02C6
ENCODING 710
SWIDTH 270 0
DWIDTH 6 0
BBX 6 3 0 17
BITMAP
30
68
C4
ENDCHAR
STARTCHAR 02C7
ENCODING 711
SWIDTH 270 0
DWIDTH 6 0
BBX 6 3 0 17
BITMAP
C4
68
30
ENDCHAR
STARTCHAR 02D8
ENCODING 728
SWIDTH 225 0
DWIDTH 5 0
BBX 6 3 0 17
BITMAP
84
CC
78
ENDCHAR
STARTCHAR 02D9
ENCODING 729
SWIDTH 135 0
DWIDTH 3 0
BBX 3 3 0 17
BITMAP
E0
E0
40
ENDCHAR
STARTCHAR 02DA
ENCODING 730
SWIDTH 180 0
DWIDTH 4 0
BBX 4 4 0 17
BITMAP
70
90
90
70
ENDCHAR
STARTCHAR 02DB
ENCODING 731
SWIDTH 180 0
DWIDTH 4 0
BBX 4 4 0 -4
BITMAP
40
80
80
70
ENDCHAR
STARTCHAR 02DC
ENCODING 732
SWIDTH 225 0
DWIDTH 5 0
BBX 5 2 0 18
BITMAP
40
F8
ENDCHAR
STARTCHAR 02DD
ENCODING 733
SWIDTH 315 0
DWIDTH 7 0
BBX 7 3 0 17
BITMAP
26
44
C8
ENDCHAR
STARTCHAR 0300
ENCODING 768
SWIDTH 0 0
DWIDTH 0 0
BBX 3 3 -3 17
BITMAP
80
40
60
ENDCHAR
STARTCHAR 0301
ENCODING 769
SWIDTH 0 0
DWIDTH 0 0
BBX 3 3 -3 17
BITMAP
60
40
80
ENDCHAR
STARTCHAR 0302
ENCODING 770
SWIDTH 0 0
DWIDTH 0 0
BBX 6 3 -6 17
BITMAP
30
58
8C
ENDCHAR
STARTCHAR 0303
ENCODING 771
SWIDTH 0 0
DWIDTH 0 0
BBX 5 1 -5 19
BITMAP
F8
ENDCHAR
STARTCHAR 0304
ENCODING 772
SWIDTH 0 0
DWIDTH 0 0
BBX 6 1 -6 18
BITMAP
FC
ENDCHAR
STARTCHAR 0306
ENCODING 774
SWIDTH 0 0
DWIDTH 0 0
BBX 6 3 -6 17
BITMAP
84
CC
78
ENDCHAR
STARTCHAR 0307
ENCODING 775
SWIDTH 0 0
DWIDTH 0 0
BBX 3 3 -3 17
BITMAP
E0
E0
40
ENDCHAR
STARTCHAR 0308
ENCODING 776
SWIDTH 0 0
DWIDTH 0 0
BBX 8 3 -8 17
BITMAP
62
E7
E7
ENDCHAR
STARTCHAR 0309
ENCODING 777
SWIDTH 0 0
DWIDTH 0 0
BBX 2 4 -2 17
BITMAP
40
40
80
C0
ENDCHAR
STARTCHAR 030A
ENCODING 778
SWIDTH 0 0
DWIDTH 0 0
BBX 4 4 -4 17
BITMAP
F0
90
90
E0
ENDCHAR
STARTCHAR 030B
ENCODING 779
SWIDTH 0 0
DWIDTH 0 0
BBX 7 3 -7 17
BITMAP
26
44
C8
ENDCHAR
STARTCHAR 030C
ENCODING 780
SWIDTH 0 0
DWIDTH 0 0
BBX 6 3 -6 17
BITMAP
8C
58
30
ENDCHAR
STARTCHAR 031B
ENCODING 795
SWIDTH 0 0
DWIDTH 0 0
BBX 3 3 -3 15
BITMAP
20
20
C0
ENDCHAR
STARTCHAR 0323
ENCODING 803
SWIDTH 0 0
DWIDTH 0 0
BBX 3 3 -3 -6
BITMAP
E0
E0
E0
ENDCHAR
STARTCHAR 0326
ENCODING 806
SWIDTH 0 0
DWIDTH 0 0
BBX 3 4 -3 -5
BITMAP
60
40
40
C0
ENDCHAR
STARTCHAR 0327
ENCODING 807
SWIDTH 0 0
DWIDTH 0 0
BBX 5 5 -5 -5
BITMAP
20
18
08
C8
30
ENDCHAR
STARTCHAR 0328
ENCODING 808
SWIDTH 0 0
DWIDTH 0 0
BBX 4 4 -4 -4
BITMAP
40
80
80
70
ENDCHAR
STARTCHAR 0335
ENCODING 821
SWIDTH 0 0
DWIDTH 0 0
BBX 7 2 -7 4
BITMAP
FE
FE
ENDCHAR
STARTCHAR 1EA0
ENCODING 7840
SWIDTH 540 0
DWIDTH 12 0
BBX 11 22 1 -6
BITMAP
1E00
7F00
6180
C180
C080
C080
C080
C080
C080
C080
C080
C080
C080
C080
FFE0
FFE0
0000
0000
0000
1C00
1C00
0C00
ENDCHAR
STARTCHAR 1EA1
ENCODING 7841
SWIDTH 540 0
DWIDTH 12 0
BBX 11 22 1 -6
BITMAP
1E00
7F00
6180
C180
C080
C080
C080
C080
C080
C080
C080
C080
C080
C080
FFE0
FFE0
0000
0000
0000
1C00
1C00
0C00
ENDCHAR
STARTCHAR 1EA2
ENCODING 7842
SWIDTH 540 0
DWIDTH 12 0
BBX 11 21 1 0
BITMAP
0800
0800
0800
0800
0000
1E00
7F00
6180
C180
C080
C080
C080
C080
C080
C080
C080
C080
C080
C080
FFE0
FFE0
ENDCHAR
STARTCHAR 1EA3
ENCODING 7843
SWIDTH 540 0
DWIDTH 12 0
BBX 11 21 1 0
BITMAP
0800
0800
0800
0800
0000
1E00
7F00
6180
C180
C080
C080
C080
C080
C080
C080
C080
C080
C080
C080
FFE0
FFE0
ENDCHAR
STARTCHAR 1EA4
ENCODING 7844
SWIDTH 540 0
DWIDTH 12 0
BBX 11 22 1 0
BITMAP
0040
00C0
0C80
1600
2200
0000
1E00
7F00
6180
C180
C080
C080
C080
C080
C080
C080
C080
C080
C080
C080
FFE0
FFE0
ENDCHAR
STARTCHAR 1EA5
ENCODING 7845
SWIDTH 540 0
DWIDTH 12 0
BBX 11 22 1 0
BITMAP
0040
00C0
0C80
1600
2200
0000
1E00
7F00
6180
C180
C080
C080
C080
C080
C080
C080
C080
C080
C080
C080
FFE0
FFE0
ENDCHAR
STARTCHAR 1EA6
ENCODING 7846
SWIDTH 540 0
DWIDTH 12 0
BBX 12 22 0 0
BITMAP
8000
C000
4600
0B00
1100
0000
0F00
3F80
30C0
60C0
6040
6040
6040
6040
6040
6040
6040
6040
6040
6040
7FF0
7FF0
ENDCHAR
STARTCHAR 1EA7
ENCODING 7847
SWIDTH 540 0
DWIDTH 12 0
BBX 12 22 0 0
BITMAP
8000
C000
4600
0B00
1100
0000
0F00
3F80
30C0
60C0
6040
6040
6040
6040
6040
6040
6040
6040
6040
6040
7FF0
7FF0
ENDCHAR
STARTCHAR 1EA8
ENCODING 7848
SWIDTH 540 0
DWIDTH 12 0
BBX 11 23 1 0
BITMAP
0080
0080
0180
0D00
1600
2200
0000
1E00
7F00
6180
C180
C080
C080
C080
C080
C080
C080
C080
C080
C080
C080
FFE0
FFE0
ENDCHAR
STARTCHAR 1EA9
ENCODING 7849
SWIDTH 540 0
DWIDTH 12 0
BBX 11 23 1 0
BITMAP
0080
0080
0180
0D00
1600
2200
0000
1E00
7F00
6180
C180
C080
C080
C080
C080
C080
C080
C080
C080
C080
C080
FFE0
FFE0
ENDCHAR
STARTCHAR 1EAA
ENCODING 7850
SWIDTH 540 0
DWIDTH 12 0
BBX 11 22 1 0
BITMAP
0740
0080
0C00
1600
2200
0000
1E00
7F00
6180
C180
C080
C080
C080
C080
C080
C080
C080
C080
C080
C080
FFE0
FFE0
ENDCHAR
STARTCHAR 1EAB
ENCODING 7851
SWIDTH 540 0
DWIDTH 12 0
BBX 11 22 1 0
BITMAP
0740
0080
0C00
1600
2200
0000
1E00
7F00
6180
C180
C080
C080
C080
C080
C080
C080
C080
C080
C080
C080
FFE0
FFE0
ENDCHAR
STARTCHAR 1EAC
ENCODING 7852
SWIDTH 540 0
DWIDTH 12 0
BBX 11 26 1 -6
BITMAP
0C00
1600
2200
0000
1E00
7F00
6180
C180
C080
C080
C080
C080
C080
C080
C080
C080
C080
C080
FFE0
FFE0
0000
0000
0000
1C00
1C00
0C00
ENDCHAR
STARTCHAR 1EAD
ENCODING 7853
SWIDTH 540 0
DWIDTH 12 0
BBX 11 26 1 -6
BITMAP
0C00
1600
2200
0000
1E00
7F00
6180
C180
C080
C080
C080
C080
C080
C080
C080
C080
C080
C080
FFE0
FFE0
0000
0000
0000
1C00
1C00
0C00
ENDCHAR
STARTCHAR 1EAE
ENCODING 7854
SWIDTH 540 0
DWIDTH 12 0
BBX 11 23 1 0
BITMAP
0200
0600
0400
2B00
2200
1E00
0000
1E00
7F00
6180
C180
C080
C080
C080
C080
C080
C080
C080
C080
C080
C080
FFE0
FFE0
ENDCHAR
STARTCHAR 1EAF
ENCODING 7855
SWIDTH 540 0
DWIDTH 12 0
BBX 11 23 1 0
BITMAP
0200
0600
0400
2B00
2200
1E00
0000
1E00
7F00
6180
C180
C080
C080
C080
C080
C080
C080
C080
C080
C080
C080
FFE0
FFE0
ENDCHAR
STARTCHAR 1EB0
ENCODING 7856
SWIDTH 540 0
DWIDTH 12 0
BBX 11 23 1 0
BITMAP
2000
3000
1000
2300
2200
1E00
0000
1E00
7F00
6180
C180
C080
C080
C080
C080
C080
C080
C080
C080
C080
C080
FFE0
FFE0
ENDCHAR
STARTCHAR 1EB1
ENCODING 7857
SWIDTH 540 0
DWIDTH 12 0
BBX 11 23 1 0
BITMAP
2000
3000
1000
2300
2200
1E00
0000
1E00
7F00
6180
C180
C080
C080
C080
C080
C080
C080
C080
C080
C080
C080
FFE0
FFE0
ENDCHAR
STARTCHAR 1EB2
ENCODING 7858
SWIDTH 540 0
DWIDTH 12 0
BBX 11 23 1 0
BITMAP
0400
0400
0800
2B00
2200
1E00
0000
1E00
7F00
6180
C180
C080
C080
C080
C080
C080
C080
C080
C080
C080
C080
FFE0
FFE0
ENDCHAR
STARTCHAR 1EB3
ENCODING 7859
SWIDTH 540 0
DWIDTH 12 0
BBX 11 23 1 0
BITMAP
0400
0400
0800
2B00
2200
1E00
0000
1E00
7F00
6180
C180
C080
C080
C080
C080
C080
C080
C080
C080
C080
C080
FFE0
FFE0
ENDCHAR
STARTCHAR 1EB4
ENCODING 7860
SWIDTH 540 0
DWIDTH 12 0
BBX 11 22 1 0
BITMAP
3E00
0000
2300
2200
1E00
0000
1E00
7F00
6180
C180
C080
C080
C080
C080
C080
C080
C080
C080
C080
C080
FFE0
FFE0
ENDCHAR
STARTCHAR 1EB5
ENCODING 7861
SWIDTH 540 0
DWIDTH 12 0
BBX 11 22 1 0
BITMAP
3E00
0000
2300
2200
1E00
0000
1E00
7F00
6180
C180
C080
C080
C080
C080
C080
C080
C080
C080
C080
C080
FFE0
FFE0
ENDCHAR
STARTCHAR 1EB6
ENCODING 7862
SWIDTH 540 0
DWIDTH 12 0
BBX 11 26 1 -6
BITMAP
2300
2200
1E00
0000
1E00
7F00
6180
C180
C080
C080
C080
C080
C080
C080
C080
C080
C080
C080
FFE0
FFE0
0000
0000
0000
1C00
1C00
0C00
ENDCHAR
STARTCHAR 1EB7
ENCODING 7863
SWIDTH 540 0
DWIDTH 12 0
BBX 11 26 1 -6
BITMAP
2300
2200
1E00
0000
1E00
7F00
6180
C180
C080
C080
C080
C080
C080
C080
C080
C080
C080
C080
FFE0
FFE0
0000
0000
0000
1C00
1C00
0C00
ENDCHAR
STARTCHAR 1EB8
ENCODING 7864
SWIDTH 450 0
DWIDTH 10 0
BBX 11 22 0 -6
BITMAP
3F00
3F00
3000
3000
3000
3000
3000
FF80
FF80
3000
3000
3000
3000
3000
3FE0
3FE0
0000
0000
0000
0700
0700
0300
ENDCHAR
STARTCHAR 1EB9
ENCODING 7865
SWIDTH 450 0
DWIDTH 10 0
BBX 11 22 0 -6
BITMAP
3F00
3F00
3000
3000
3000
3000
3000
FF80
FF80
3000
3000
3000
3000
3000
3FE0
3FE0
0000
0000
0000
0700
0700
0300
ENDCHAR
STARTCHAR 1EBA
ENCODING 7866
SWIDTH 450 0
DWIDTH 10 0
BBX 11 21 0 0
BITMAP
0400
0400
0800
0800
0000
3F00
3F00
3000
3000
3000
3000
3000
FF80
FF80
3000
3000
3000
3000
3000
3FE0
3FE0
ENDCHAR
STARTCHAR 1EBB
ENCODING 7867
SWIDTH 450 0
DWIDTH 10 0
BBX 11 21 0 0
BITMAP
0400
0400
0800
0800
0000
3F00
3F00
3000
3000
3000
3000
3000
FF80
FF80
3000
3000
3000
3000
3000
3FE0
3FE0
ENDCHAR
STARTCHAR 1EBC
ENCODING 7868
SWIDTH 450 0
DWIDTH 10 0
BBX 11 20 0 0
BITMAP
1000
3E00
0000
0000
3F00
3F00
3000
3000
3000
3000
3000
FF80
FF80
3000
3000
3000
3000
3000
3FE0
3FE0
ENDCHAR
STARTCHAR 1EBD
ENCODING 7869
SWIDTH 450 0
DWIDTH 10 0
BBX 11 20 0 0
BITMAP
1000
3E00
0000
0000
3F00
3F00
3000
3000
3000
3000
3000
FF80
FF80
3000
3000
3000
3000
3000
3FE0
3FE0
ENDCHAR
STARTCHAR 1EBE
ENCODING 7870
SWIDTH 450 0
DWIDTH 10 0
BBX 11 22 0 0
BITMAP
0060
0040
0C80
1A00
3300
0000
3F00
3F00
3000
3000
3000
3000
3000
FF80
FF80
3000
3000
3000
3000
3000
3FE0
3FE0
ENDCHAR
STARTCHAR 1EBF
ENCODING 7871
SWIDTH 450 0
DWIDTH 10 0
BBX 11 22 0 0
BITMAP
0060
0040
0C80
1A00
3300
0000
3F00
3F00
3000
3000
3000
3000
3000
FF80
FF80
3000
3000
3000
3000
3000
3FE0
3FE0
ENDCHAR
STARTCHAR 1EC0
ENCODING 7872
SWIDTH 450 0
DWIDTH 10 0
BBX 12 22 -1 0
BITMAP
C000
4000
2600
0D00
1980
0000
1F80
1F80
1800
1800
1800
1800
1800
7FC0
7FC0
1800
1800
1800
1800
1800
1FF0
1FF0
ENDCHAR
STARTCHAR 1EC1
ENCODING 7873
SWIDTH 450 0
DWIDTH 10 0
BBX 12 22 -1 0
BITMAP
C000
4000
2600
0D00
1980
0000
1F80
1F80
1800
1800
1800
1800
1800
7FC0
7FC0
1800
1800
1800
1800
1800
1FF0
1FF0
ENDCHAR
STARTCHAR 1EC2
ENCODING 7874
SWIDTH 450 0
DWIDTH 10 0
BBX 11 23 0 0
BITMAP
0080
0080
0080
0C80
1A00
3300
0000
3F00
3F00
3000
3000
3000
3000
3000
FF80
FF80
3000
3000
3000
3000
3000
3FE0
3FE0
ENDCHAR
STARTCHAR 1EC3
ENCODING 7875
SWIDTH 450 0
DWIDTH 10 0
BBX 11 23 0 0
BITMAP
0080
0080
0080
0C80
1A00
3300
0000
3F00
3F00
3000
3000
3000
3000
3000
FF80
FF80
3000
3000
3000
3000
3000
3FE0
3FE0
ENDCHAR
STARTCHAR 1EC4
ENCODING 7876
SWIDTH 450 0
DWIDTH 10 0
BBX 11 22 0 0
BITMAP
07C0
00C0
0C00
1A00
3300
0000
3F00
3F00
3000
3000
3000
3000
3000
FF80
FF80
3000
3000
3000
3000
3000
3FE0
3FE0
ENDCHAR
STARTCHAR 1EC5
ENCODING 7877
SWIDTH 450 0
DWIDTH 10 0
BBX 11 22 0 0
BITMAP
07C0
00C0
0C00
1A00
3300
0000
3F00
3F00
3000
3000
3000
3000
3000
FF80
FF80
3000
3000
3000
3000
3000
3FE0
3FE0
ENDCHAR
STARTCHAR 1EC6
ENCODING 7878
SWIDTH 450 0
DWIDTH 10 0
BBX 11 26 0 -6
BITMAP
0C00
1A00
3300
0000
3F00
3F00
3000
3000
3000
3000
3000
FF80
FF80
3000
3000
3000
3000
3000
3FE0
3FE0
0000
0000
0000
0700
0700
0300
ENDCHAR
STARTCHAR 1EC7
ENCODING 7879
SWIDTH 450 0
DWIDTH 10 0
BBX 11 26 0 -6
BITMAP
0C00
1A00
3300
0000
3F00
3F00
3000
3000
3000
3000
3000
FF80
FF80
3000
3000
3000
3000
3000
3FE0
3FE0
0000
0000
0000
0700
0700
0300
ENDCHAR
STARTCHAR 1EC8
ENCODING 7880
SWIDTH 135 0
DWIDTH 3 0
BBX 2 15 1 0
BITMAP
40
40
80
80
00
C0
C0
C0
C0
C0
C0
C0
C0
C0
C0
ENDCHAR
STARTCHAR 1EC9
ENCODING 7881
SWIDTH 135 0
DWIDTH 3 0
BBX 2 15 1 0
BITMAP
40
40
80
80
00
C0
C0
C0
C0
C0
C0
C0
C0
C0
C0
ENDCHAR
STARTCHAR 1ECA
ENCODING 7882
SWIDTH 135 0
DWIDTH 3 0
BBX 6 23 -1 -5
BITMAP
20
FC
30
30
08
00
00
30
30
30
30
30
30
30
30
30
30
00
00
00
30
70
30
ENDCHAR
STARTCHAR 1ECB
ENCODING 7883
SWIDTH 135 0
DWIDTH 3 0
BBX 6 23 -1 -5
BITMAP
20
FC
30
30
08
00
00
30
30
30
30
30
30
30
30
30
30
00
00
00
30
70
30
ENDCHAR
STARTCHAR 1ECC
ENCODING 7884
SWIDTH 810 0
DWIDTH 18 0
BBX 16 22 1 -6
BITMAP
07E0
1FF8
381C
6006
4002
C003
C003
8001
8001
8001
C003
C003
6006
300C
1C38
0FF0
0000
0000
0000
0180
03C0
0180
ENDCHAR
STARTCHAR 1ECD
ENCODING 7885
SWIDTH 810 0
DWIDTH 18 0
BBX 16 22 1 -6
BITMAP
07E0
1FF8
381C
6006
4002
C003
C003
8001
8001
8001
C003
C003
6006
300C
1C38
0FF0
0000
0000
0000
0180
03C0
0180
ENDCHAR
STARTCHAR 1ECE
ENCODING 7886
SWIDTH 810 0
DWIDTH 18 0
BBX 16 21 1 0
BITMAP
0080
0080
0100
0100
0000
07E0
1FF8
381C
6006
4002
C003
C003
8001
8001
8001
C003
C003
6006
300C
1C38
0FF0
ENDCHAR
STARTCHAR 1ECF
ENCODING 7887
SWIDTH 810 0
DWIDTH 18 0
BBX 16 21 1 0
BITMAP
0080
0080
0100
0100
0000
07E0
1FF8
381C
6006
4002
C003
C003
8001
8001
8001
C003
C003
6006
300C
1C38
0FF0
ENDCHAR
STARTCHAR 1ED0
ENCODING 7888
SWIDTH 810 0
DWIDTH 18 0
BBX 16 22 1 0
BITMAP
000C
0008
0190
03C0
0660
0000
07E0
1FF8
381C
6006
4002
C003
C003
8001
8001
8001
C003
C003
6006
300C
1C38
0FF0
ENDCHAR
STARTCHAR 1ED1
ENCODING 7889
SWIDTH 810 0
DWIDTH 18 0
BBX 16 22 1 0
BITMAP
000C
0008
0190
03C0
0660
0000
07E0
1FF8
381C
6006
4002
C003
C003
8001
8001
8001
C003
C003
6006
300C
1C38
0FF0
ENDCHAR
STARTCHAR 1ED2
ENCODING 7890
SWIDTH 810 0
DWIDTH 18 0
BBX 16 22 1 0
BITMAP
2000
1000
1980
03C0
0660
0000
07E0
1FF8
381C
6006
4002
C003
C003
8001
8001
8001
C003
C003
6006
300C
1C38
0FF0
ENDCHAR
STARTCHAR 1ED3
ENCODING 7891
SWIDTH 810 0
DWIDTH 18 0
BBX 16 22 1 0
BITMAP
2000
1000
1980
03C0
0660
0000
07E0
1FF8
381C
6006
4002
C003
C003
8001
8001
8001
C003
C003
6006
300C
1C38
0FF0
ENDCHAR
STARTCHAR 1ED4
ENCODING 7892
SWIDTH 810 0
DWIDTH 18 0
BBX 16 23 1 0
BITMAP
0010
0010
0010
0190
03C0
0660
0000
07E0
1FF8
381C
6006
4002
C003
C003
8001
8001
8001
C003
C003
6006
300C
1C38
0FF0
ENDCHAR
STARTCHAR 1ED5
ENCODING 7893
SWIDTH 810 0
DWIDTH 18 0
BBX 16 23 1 0
BITMAP
0010
0010
0010
0190
03C0
0660
0000
07E0
1FF8
381C
6006
4002
C003
C003
8001
8001
8001
C003
C003
6006
300C
1C38
0FF0
ENDCHAR
STARTCHAR 1ED6
ENCODING 7894
SWIDTH 810 0
DWIDTH 18 0
BBX 16 22 1 0
BITMAP
00E8
0018
0180
03C0
0660
0000
07E0
1FF8
381C
6006
4002
C003
C003
8001
8001
8001
C003
C003
6006
300C
1C38
0FF0
ENDCHAR
STARTCHAR 1ED7
ENCODING 7895
SWIDTH 810 0
DWIDTH 18 0
BBX 16 22 1 0
BITMAP
00E8
0018
0180
03C0
0660
0000
07E0
1FF8
381C
6006
4002
C003
C003
8001
8001
8001
C003
C003
6006
300C
1C38
0FF0
ENDCHAR
STARTCHAR 1ED8
ENCODING 7896
SWIDTH 810 0
DWIDTH 18 0
BBX 16 26 1 -6
BITMAP
0180
03C0
0660
0000
07E0
1FF8
381C
6006
4002
C003
C003
8001
8001
8001
C003
C003
6006
300C
1C38
0FF0
0000
0000
0000
0180
03C0
0180
ENDCHAR
STARTCHAR 1ED9
ENCODING 7897
SWIDTH 810 0
DWIDTH 18 0
BBX 16 26 1 -6
BITMAP
0180
03C0
0660
0000
07E0
1FF8
381C
6006
4002
C003
C003
8001
8001
8001
C003
C003
6006
300C
1C38
0FF0
0000
0000
0000
0180
03C0
0180
ENDCHAR
STARTCHAR 1EDA
ENCODING 7898
SWIDTH 810 0
DWIDTH 18 0
BBX 16 20 1 0
BITMAP
0040
0080
0184
0004
07EC
1FF8
381C
6006
4002
C003
C003
8001
8001
8001
C003
C003
6006
300C
1C38
0FF0
ENDCHAR
STARTCHAR 1EDB
ENCODING 7899
SWIDTH 810 0
DWIDTH 18 0
BBX 16 20 1 0
BITMAP
0040
0080
0184
0004
07EC
1FF8
381C
6006
4002
C003
C003
8001
8001
8001
C003
C003
6006
300C
1C38
0FF0
ENDCHAR
STARTCHAR 1EDC
ENCODING 7900
SWIDTH 810 0
DWIDTH 18 0
BBX 16 20 1 0
BITMAP
0200
0100
0184
0004
07EC
1FF8
381C
6006
4002
C003
C003
8001
8001
8001
C003
C003
6006
300C
1C38
0FF0
ENDCHAR
STARTCHAR 1EDD
ENCODING 7901
SWIDTH 810 0
DWIDTH 18 0
BBX 16 20 1 0
BITMAP
0200
0100
0184
0004
07EC
1FF8
381C
6006
4002
C003
C003
8001
8001
8001
C003
C003
6006
300C
1C38
0FF0
ENDCHAR
STARTCHAR 1EDE
ENCODING 7902
SWIDTH 810 0
DWIDTH 18 0
BBX 16 21 1 0
BITMAP
0080
0080
0100
0104
0004
07EC
1FF8
381C
6006
4002
C003
C003
8001
8001
8001
C003
C003
6006
300C
1C38
0FF0
ENDCHAR
STARTCHAR 1EDF
ENCODING 7903
SWIDTH 810 0
DWIDTH 18 0
BBX 16 21 1 0
BITMAP
0080
0080
0100
0104
0004
07EC
1FF8
381C
6006
4002
C003
C003
8001
8001
8001
C003
C003
6006
300C
1C38
0FF0
ENDCHAR
STARTCHAR 1EE0
ENCODING 7904
SWIDTH 810 0
DWIDTH 18 0
BBX 16 20 1 0
BITMAP
0200
07C0
0004
0004
07EC
1FF8
381C
6006
4002
C003
C003
8001
8001
8001
C003
C003
6006
300C
1C38
0FF0
ENDCHAR
STARTCHAR 1EE1
ENCODING 7905
SWIDTH 810 0
DWIDTH 18 0
BBX 16 20 1 0
BITMAP
0200
07C0
0004
0004
07EC
1FF8
381C
6006
4002
C003
C003
8001
8001
8001
C003
C003
6006
300C
1C38
0FF0
ENDCHAR
STARTCHAR 1EE2
ENCODING 7906
SWIDTH 810 0
DWIDTH 18 0
BBX 16 24 1 -6
BITMAP
0004
0004
07EC
1FF8
381C
6006
4002
C003
C003
8001
8001
8001
C003
C003
6006
300C
1C38
0FF0
0000
0000
0000
0180
03C0
0180
ENDCHAR
STARTCHAR 1EE3
ENCODING 7907
SWIDTH 810 0
DWIDTH 18 0
BBX 16 24 1 -6
BITMAP
0004
0004
07EC
1FF8
381C
6006
4002
C003
C003
8001
8001
8001
C003
C003
6006
300C
1C38
0FF0
0000
0000
0000
0180
03C0
0180
ENDCHAR
STARTCHAR 1EE4
ENCODING 7908
SWIDTH 495 0
DWIDTH 11 0
BBX 9 22 1 -6
BITMAP
C180
C180
C180
C180
C180
C180
C180
C180
C180
C180
C180
C180
C180
C180
6300
3E00
0000
0000
0000
1C00
1C00
1C00
ENDCHAR
STARTCHAR 1EE5
ENCODING 7909
SWIDTH 495 0
DWIDTH 11 0
BBX 9 22 1 -6
BITMAP
C180
C180
C180
C180
C180
C180
C180
C180
C180
C180
C180
C180
C180
C180
6300
3E00
0000
0000
0000
1C00
1C00
1C00
ENDCHAR
STARTCHAR 1EE6
ENCODING 7910
SWIDTH 495 0
DWIDTH 11 0
BBX 9 21 1 0
BITMAP
0800
0800
0800
0800
0000
C180
C180
C180
C180
C180
C180
C180
C180
C180
C180
C180
C180
C180
C180
6300
3E00
ENDCHAR
STARTCHAR 1EE7
ENCODING 7911
SWIDTH 495 0
DWIDTH 11 0
BBX 9 21 1 0
BITMAP
0800
0800
0800
0800
0000
C180
C180
C180
C180
C180
C180
C180
C180
C180
C180
C180
C180
C180
C180
6300
3E00
ENDCHAR
STARTCHAR 1EE8
ENCODING 7912
SWIDTH 495 0
DWIDTH 11 0
BBX 11 20 1 0
BITMAP
0600
0C00
0860
0060
C1C0
C180
C180
C180
C180
C180
C180
C180
C180
C180
C180
C180
C180
C180
6300
3E00
ENDCHAR
STARTCHAR 1EE9
ENCODING 7913
SWIDTH 495 0
DWIDTH 11 0
BBX 11 20 1 0
BITMAP
0600
0C00
0860
0060
C1C0
C180
C180
C180
C180
C180
C180
C180
C180
C180
C180
C180
C180
C180
6300
3E00
ENDCHAR
STARTCHAR 1EEA
ENCODING 7914
SWIDTH 495 0
DWIDTH 11 0
BBX 11 20 1 0
BITMAP
3000
1800
0860
0060
C1C0
C180
C180
C180
C180
C180
C180
C180
C180
C180
C180
C180
C180
C180
6300
3E00
ENDCHAR
STARTCHAR 1EEB
ENCODING 7915
SWIDTH 495 0
DWIDTH 11 0
BBX 11 20 1 0
BITMAP
3000
1800
0860
0060
C1C0
C180
C180
C180
C180
C180
C180
C180
C180
C180
C180
C180
C180
C180
6300
3E00
ENDCHAR
STARTCHAR 1EEC
ENCODING 7916
SWIDTH 495 0
DWIDTH 11 0
BBX 11 21 1 0
BITMAP
0800
0800
0800
0860
0060
C1C0
C180
C180
C180
C180
C180
C180
C180
C180
C180
C180
C180
C180
C180
6300
3E00
ENDCHAR
STARTCHAR 1EED
ENCODING 7917
SWIDTH 495 0
DWIDTH 11 0
BBX 11 21 1 0
BITMAP
0800
0800
0800
0860
0060
C1C0
C180
C180
C180
C180
C180
C180
C180
C180
C180
C180
C180
C180
C180
6300
3E00
ENDCHAR
STARTCHAR 1EEE
ENCODING 7918
SWIDTH 495 0
DWIDTH 11 0
BBX 11 19 1 1
BITMAP
3E00
0060
0060
C1C0
C180
C180
C180
C180
C180
C180
C180
C180
C180
C180
C180
C180
C180
6300
3E00
ENDCHAR
STARTCHAR 1EEF
ENCODING 7919
SWIDTH 495 0
DWIDTH 11 0
BBX 11 19 1 1
BITMAP
3E00
0060
0060
C1C0
C180
C180
C180
C180
C180
C180
C180
C180
C180
C180
C180
C180
C180
6300
3E00
ENDCHAR
STARTCHAR 1EF0
ENCODING 7920
SWIDTH 495 0
DWIDTH 11 0
BBX 11 24 1 -6
BITMAP
0060
0060
C1C0
C180
C180
C180
C180
C180
C180
C180
C180
C180
C180
C180
C180
C180
6300
3E00
0000
0000
0000
1C00
1C00
1C00
ENDCHAR
STARTCHAR 1EF1
ENCODING 7921
SWIDTH 495 0
DWIDTH 11 0
BBX 11 24 1 -6
BITMAP
0060
0060
C1C0
C180
C180
C180
C180
C180
C180
C180
C180
C180
C180
C180
C180
C180
6300
3E00
0000
0000
0000
1C00
1C00
1C00
ENDCHAR
STARTCHAR 1EF2
ENCODING 7922
SWIDTH 450 0
DWIDTH 10 0
BBX 9 20 1 0
BITMAP
3000
1000
0800
0000
8180
8180
8180
8180
8180
8180
8180
8180
C180
C180
6300
3E00
0800
0800
0800
0800
ENDCHAR
STARTCHAR 1EF3
ENCODING 7923
SWIDTH 450 0
DWIDTH 10 0
BBX 9 20 1 0
BITMAP
3000
1000
0800
0000
8180
8180
8180
8180
8180
8180
8180
8180
C180
C180
6300
3E00
0800
0800
0800
0800
ENDCHAR
STARTCHAR 1EF4
ENCODING 7924
SWIDTH 450 0
DWIDTH 10 0
BBX 9 22 1 -6
BITMAP
8180
8180
8180
8180
8180
8180
8180
8180
C180
C180
6300
3E00
0800
0800
0800
0800
0000
0000
0000
1C00
1C00
1800
ENDCHAR
STARTCHAR 1EF5
ENCODING 7925
SWIDTH 450 0
DWIDTH 10 0
BBX 9 22 1 -6
BITMAP
8180
8180
8180
8180
8180
8180
8180
8180
C180
C180
6300
3E00
0800
0800
0800
0800
0000
0000
0000
1C00
1C00
1800
ENDCHAR
STARTCHAR 1EF6
ENCODING 7926
SWIDTH 450 0
DWIDTH 10 0
BBX 9 21 1 0
BITMAP
0800
0800
0800
0800
0000
8180
8180
8180
8180
8180
8180
8180
8180
C180
C180
6300
3E00
0800
0800
0800
0800
ENDCHAR
STARTCHAR 1EF7
ENCODING 7927
SWIDTH 450 0
DWIDTH 10 0
BBX 9 21 1 0
BITMAP
0800
0800
0800
0800
0000
8180
8180
8180
8180
8180
8180
8180
8180
C180
C180
6300
3E00
0800
0800
0800
0800
ENDCHAR
STARTCHAR 1EF8
ENCODING 7928
SWIDTH 450 0
DWIDTH 10 0
BBX 9 20 1 0
BITMAP
2000
7E00
0000
0000
8180
8180
8180
8180
8180
8180
8180
8180
C180
C180
6300
3E00
0800
0800
0800
0800
ENDCHAR
STARTCHAR 1EF9
ENCODING 7929
SWIDTH 450 0
DWIDTH 10 0
BBX 9 20 1 0
BITMAP
2000
7E00
0000
0000
8180
8180
8180
8180
8180
8180
8180
8180
C180
C180
6300
3E00
0800
0800
0800
0800
ENDCHAR
STARTCHAR 2013
ENCODING 8211
SWIDTH 540 0
DWIDTH 12 0
BBX 11 2 1 5
BITMAP
FFE0
FFE0
ENDCHAR
STARTCHAR 2014
ENCODING 8212
SWIDTH 765 0
DWIDTH 17 0
BBX 15 2 1 5
BITMAP
FFFE
FFFE
ENDCHAR
STARTCHAR 2018
ENCODING 8216
SWIDTH 180 0
DWIDTH 4 0
BBX 3 5 1 11
BITMAP
20
60
40
40
C0
ENDCHAR
STARTCHAR 2019
ENCODING 8217
SWIDTH 180 0
DWIDTH 4 0
BBX 3 5 1 11
BITMAP
60
40
40
C0
80
ENDCHAR
STARTCHAR 201A
ENCODING 8218
SWIDTH 180 0
DWIDTH 4 0
BBX 3 5 1 -3
BITMAP
60
40
40
C0
80
ENDCHAR
STARTCHAR 201C
ENCODING 8220
SWIDTH 360 0
DWIDTH 8 0
BBX 7 5 1 11
BITMAP
26
24
64
4C
CC
ENDCHAR
STARTCHAR 201D
ENCODING 8221
SWIDTH 360 0
DWIDTH 8 0
BBX 6 5 1 11
BITMAP
64
4C
4C
C8
88
ENDCHAR
STARTCHAR 201E
ENCODING 8222
SWIDTH 360 0
DWIDTH 8 0
BBX 7 5 1 -3
BITMAP
66
44
44
CC
88
ENDCHAR
STARTCHAR 2020
ENCODING 8224
SWIDTH 405 0
DWIDTH 9 0
BBX 7 11 1 5
BITMAP
10
10
FE
FE
10
10
10
10
10
10
10
ENDCHAR
STARTCHAR 2021
ENCODING 8225
SWIDTH 405 0
DWIDTH 9 0
BBX 7 10 1 6
BITMAP
10
10
FE
FE
10
10
10
FE
10
10
ENDCHAR
STARTCHAR 2022
ENCODING 8226
SWIDTH 270 0
DWIDTH 6 0
BBX 5 4 1 4
BITMAP
70
F8
F8
70
ENDCHAR
STARTCHAR 2026
ENCODING 8230
SWIDTH 630 0
DWIDTH 14 0
BBX 12 3 1 0
BITMAP
6630
E770
E670
ENDCHAR
STARTCHAR 2030
ENCODING 8240
SWIDTH 1215 0
DWIDTH 27 0
BBX 26 16 1 0
BITMAP
38060000
7E0C0000
C2080000
C3100000
C3300000
C2200000
7E400000
18C00000
01800000
011E0F00
03331180
0661B080
0461A0C0
0861B080
18331180
101E0F00
ENDCHAR
STARTCHAR 2039
ENCODING 8249
SWIDTH 315 0
DWIDTH 7 0
BBX 5 10 1 2
BITMAP
08
18
30
60
40
C0
60
30
10
18
ENDCHAR
STARTCHAR 203A
ENCODING 8250
SWIDTH 315 0
DWIDTH 7 0
BBX 5 10 1 2
BITMAP
C0
60
20
10
18
08
18
30
60
40
ENDCHAR
STARTCHAR 2044
ENCODING 8260
SWIDTH 630 0
DWIDTH 14 0
BBX 12 16 1 0
BITMAP
0010
0030
0020
0040
00C0
0180
0100
0300
0600
0400
0800
1800
1000
2000
6000
C000
ENDCHAR
STARTCHAR 20AC
ENCODING 8364
SWIDTH 630 0
DWIDTH 14 0
BBX 12 16 1 0
BITMAP
00F0
03F0
0E00
0C00
1800
1000
FFC0
FFC0
3000
FFC0
3000
1800
1800
0C00
0790
01F0
ENDCHAR
STARTCHAR 2122
ENCODING 8482
SWIDTH 765 0
DWIDTH 17 0
BBX 15 9 1 7
BITMAP
FC22
2732
23AE
22E6
2222
2222
2222
2222
2222
ENDCHAR
STARTCHAR 2190
ENCODING 8592
SWIDTH 810 0
DWIDTH 18 0
BBX 15 10 2 3
BITMAP
0800
1800
3000
6000
FFFE
FFFE
6000
3000
1800
0800
ENDCHAR
STARTCHAR 2191
ENCODING 8593
SWIDTH 540 0
DWIDTH 12 0
BBX 9 16 2 0
BITMAP
0800
1C00
3E00
6B00
C980
8880
0800
0800
0800
0800
0800
0800
1800
1800
1800
1800
ENDCHAR
STARTCHAR 2192
ENCODING 8594
SWIDTH 810 0
DWIDTH 18 0
BBX 16 10 1 3
BITMAP
0030
0018
000C
0006
FFFF
FFFF
0006
000C
0018
0030
ENDCHAR
STARTCHAR 2193
ENCODING 8595
SWIDTH 540 0
DWIDTH 12 0
BBX 10 16 1 0
BITMAP
0C00
0C00
0C00
0C00
0C00
0400
0400
0400
0400
0400
0440
C4C0
6580
3700
1E00
0C00
ENDCHAR
STARTCHAR 2194
ENCODING 8596
SWIDTH 855 0
DWIDTH 19 0
BBX 16 10 2 3
BITMAP
0810
1818
300C
6006
FFFF
FFFF
6006
300C
1818
0810
ENDCHAR
STARTCHAR 2195
ENCODING 8597
SWIDTH 585 0
DWIDTH 13 0
BBX 11 16 1 0
BITMAP
0400
0E00
1F80
34C0
C460
0400
0400
0400
0400
0400
0400
C460
64C0
3580
1F00
0600
ENDCHAR
STARTCHAR 2196
ENCODING 8598
SWIDTH 630 0
DWIDTH 14 0
BBX 12 12 1 2
BITMAP
FE00
FE00
E000
F000
D800
CC00
C600
C300
0180
00C0
0060
0030
ENDCHAR
STARTCHAR 2197
ENCODING 8599
SWIDTH 630 0
DWIDTH 14 0
BBX 11 12 2 2
BITMAP
0FE0
0FE0
00E0
01A0
0320
0620
0C20
1820
3000
6000
C000
8000
ENDCHAR
STARTCHAR 2198
ENCODING 8600
SWIDTH 630 0
DWIDTH 14 0
BBX 12 11 1 3
BITMAP
C000
6000
3000
1800
0C10
0610
0310
0190
00D0
0070
07F0
ENDCHAR
STARTCHAR 2199
ENCODING 8601
SWIDTH 630 0
DWIDTH 14 0
BBX 12 11 1 3
BITMAP
0030
0060
00C0
0180
C300
C600
CC00
D800
F000
E000
FE00
ENDCHAR
STARTCHAR 2202
ENCODING 8706
SWIDTH 540 0
DWIDTH 12 0
BBX 10 16 1 0
BITMAP
1800
1C00
0600
0300
0180
0080
1EC0
3FC0
61C0
C0C0
C0C0
C0C0
C0C0
4180
7380
3E00
ENDCHAR
STARTCHAR 2205
ENCODING 8709
SWIDTH 675 0
DWIDTH 15 0
BBX 14 14 1 1
BITMAP
0780
1CE8
2030
4038
4048
C08C
8104
8204
C40C
4808
7018
3030
5CE0
0300
ENDCHAR
STARTCHAR 220F
ENCODING 8719
SWIDTH 585 0
DWIDTH 13 0
BBX 11 18 1 -2
BITMAP
FFE0
20C0
20C0
20C0
20C0
20C0
20C0
20C0
20C0
20C0
20C0
20C0
20C0
20C0
20C0
20C0
20C0
20C0
ENDCHAR
STARTCHAR 2211
ENCODING 8721
SWIDTH 450 0
DWIDTH 10 0
BBX 8 18 1 -2
BITMAP
FF
C0
40
60
30
30
18
08
0C
0C
08
18
10
30
60
60
C0
FF
ENDCHAR
STARTCHAR 2212
ENCODING 8722
SWIDTH 540 0
DWIDTH 12 0
BBX 10 1 1 7
BITMAP
FFC0
ENDCHAR
STARTCHAR 221A
ENCODING 8730
SWIDTH 630 0
DWIDTH 14 0
BBX 12 18 1 -2
BITMAP
00F0
00F0
0180
0180
0100
0100
0300
0300
0200
C600
4600
4400
6400
6C00
2C00
3800
3800
1800
ENDCHAR
STARTCHAR 221E
ENCODING 8734
SWIDTH 765 0
DWIDTH 17 0
BBX 15 7 1 4
BITMAP
7C7C
42C6
C182
8182
C3C2
7E7C
1818
ENDCHAR
STARTCHAR 222B
ENCODING 8747
SWIDTH 450 0
DWIDTH 10 0
BBX 9 18 1 -2
BITMAP
0380
0600
0400
0400
0C00
0C00
0C00
0800
0800
0800
1800
1800
1800
1000
1000
3000
3000
E000
ENDCHAR
STARTCHAR 2248
ENCODING 8776
SWIDTH 495 0
DWIDTH 11 0
BBX 10 7 1 4
BITMAP
6000
FFC0
0380
0000
0000
FC40
8FC0
ENDCHAR
STARTCHAR 2260
ENCODING 8800
SWIDTH 540 0
DWIDTH 12 0
BBX 10 10 1 2
BITMAP
0200
0600
FFC0
0400
0C00
0800
FFC0
FFC0
1000
3000
ENDCHAR
STARTCHAR 2264
ENCODING 8804
SWIDTH 540 0
DWIDTH 12 0
BBX 10 9 1 2
BITMAP
01C0
1F00
E000
F800
0F80
00C0
0000
FFC0
FFC0
ENDCHAR
STARTCHAR 2265
ENCODING 8805
SWIDTH 540 0
DWIDTH 12 0
BBX 10 9 1 2
BITMAP
F000
1F00
01C0
03C0
7E00
E000
0000
FFC0
FFC0
ENDCHAR
STARTCHAR 25CA
ENCODING 9674
SWIDTH 450 0
DWIDTH 10 0
BBX 8 12 1 2
BITMAP
1C
3C
26
66
43
C3
C3
62
66
34
3C
18
ENDCHAR
ENDFONT
